<svg width="996" height="1528" viewBox="0 0 996 1528" fill="none" xmlns="http://www.w3.org/2000/svg">
<path fill-rule="evenodd" clip-rule="evenodd" d="M838.605 716.624C894.484 722.494 935.988 768.818 975.976 808.288C1009.55 841.426 1029.78 882.883 1050.15 925.43C1070.91 968.785 1092.61 1011.11 1096.04 1059.05C1100.08 1115.6 1117.24 1190.36 1071.51 1223.85C1022.34 1259.86 953.927 1203.69 893.115 1207.68C850.763 1210.47 816.04 1243.3 773.597 1243.44C721.123 1243.61 666.634 1238.23 623.362 1208.55C574.112 1174.77 532.932 1125.96 518.019 1068.13C502.408 1007.6 509.497 940.228 540.11 885.722C569.771 832.912 628.644 807.193 681.344 777.338C731.246 749.069 781.566 710.632 838.605 716.624Z" fill="#F79110"/>
<path fill-rule="evenodd" clip-rule="evenodd" d="M448.254 1326.7C417.965 1367 381.012 1398.89 341.338 1430C293.988 1467.12 252.938 1527.88 192.775 1527.01C132.826 1526.14 84.7152 1473.01 47.8609 1425.72C16.3495 1385.29 8.3235 1332.61 1.66754 1281.78C-3.45193 1242.69 13.2252 1205.58 13.8709 1166.15C14.5379 1125.43 -10.5765 1083.75 5.52395 1046.34C21.9013 1008.29 61.7859 985.723 99.1896 967.912C135.755 950.5 178.037 958.338 216.563 945.849C280.34 925.177 339.345 840.777 399.388 870.604C456.303 898.877 412.06 995.393 435.336 1054.53C455.135 1104.82 521.378 1133.04 523.94 1187.03C526.494 1240.84 480.619 1283.64 448.254 1326.7Z" fill="#F79110"/>
<path fill-rule="evenodd" clip-rule="evenodd" d="M1086.71 466.433C1110.43 494.108 1134.46 519.03 1158.68 546.274C1196.39 588.7 1278.21 615.813 1269.33 671.879C1260.47 727.833 1171.8 724.176 1125.36 756.617C1093.64 778.771 1071.28 809.577 1039.87 832.163C999.101 861.483 963.327 913.774 913.324 909.09C864.074 904.477 849.573 833.745 806.039 810.259C747.674 778.772 634.088 815.468 619.763 750.717C604.206 680.404 722.463 651.854 757.015 588.671C776.599 552.858 759.722 507.844 773.572 469.448C791.733 419.101 801.311 353.813 849.858 331.277C897.672 309.08 956.163 337.304 1001.95 363.431C1041.24 385.85 1057.27 432.089 1086.71 466.433Z" fill="#F79110"/>
<path fill-rule="evenodd" clip-rule="evenodd" d="M1043.01 24.419C1101.06 11.387 1163.18 -29.9657 1216.27 -3.11932C1268.79 23.434 1274.5 96.4051 1294.68 151.68C1311.97 199.017 1323.55 246.641 1325.85 296.982C1328.23 349.21 1325.28 400.703 1308.32 450.157C1288.8 507.071 1278.27 587.704 1220.44 604.294C1157.26 622.417 1108.67 529.308 1043.01 526.258C982.301 523.439 932.281 608.128 874.852 588.242C820.946 569.576 803.605 496.66 794.773 440.302C787.035 390.92 830.175 346.958 829.21 296.982C828.216 245.475 772.279 199.099 789.179 150.433C805.548 103.297 864.817 87.9382 909.509 65.7507C951.958 44.6772 996.77 34.8003 1043.01 24.419Z" fill="#F79110"/>
</svg>
