<svg width="607" height="495" viewBox="0 0 607 495" fill="none" xmlns="http://www.w3.org/2000/svg">
<path d="M427.486 400.79L420.292 281.254L416.816 219.906C416.816 219.906 418.659 184.333 365.204 166.929C363.918 166.443 362.598 165.991 361.277 165.574L303.339 148.761C294.844 146.283 285.792 146.477 277.411 149.317L220.273 168.631L219.786 168.84V168.666C162.683 187.981 166.263 225.325 166.263 225.325L155.836 400.79H427.486Z" fill="#FFAB2F"/>
<path d="M203.45 399.297L210.957 245.369" stroke="black" stroke-width="0.3" stroke-miterlimit="10"/>
<path d="M381.053 399.297L375.666 249.017" stroke="black" stroke-width="0.3" stroke-miterlimit="10"/>
<path d="M289.888 185.48C286.339 185.549 282.814 184.874 279.541 183.5C276.268 182.126 273.319 180.083 270.884 177.501C268.448 174.92 266.58 171.857 265.4 168.511C264.219 165.165 263.753 161.608 264.03 158.071L268.93 97.2086C269.308 92.4843 271.425 88.068 274.873 84.8144C278.321 81.5608 282.854 79.7014 287.594 79.596C292.334 79.4989 296.943 81.1597 300.531 84.258C304.118 87.3564 306.431 91.6729 307.023 96.3749L314.53 157.098C314.947 160.612 314.625 164.173 313.585 167.555C312.545 170.937 310.809 174.064 308.489 176.736C306.169 179.408 303.316 181.567 300.113 183.072C296.91 184.578 293.427 185.398 289.888 185.48Z" fill="#E8878B"/>
<path d="M312.863 143.55C312.863 143.55 278.107 149.317 268.062 122.082L309.248 114.404L312.863 143.55Z" fill="#D6656D"/>
<path d="M285.785 8.9733L285.75 8.97405C263.278 9.46023 245.455 28.0627 245.941 50.5239L246.736 87.1994C247.222 109.661 265.834 127.475 288.306 126.989L288.34 126.988C310.813 126.502 328.635 107.899 328.149 85.438L327.355 48.7625C326.868 26.3014 308.257 8.48712 285.785 8.9733Z" fill="#E8878B"/>
<path d="M285.752 8.27744C235.044 9.38908 246.2 62.9215 246.2 62.9215L246.513 76.4348H247.938L251.24 56.738C251.537 54.0309 252.339 51.4034 253.603 48.9912L258.921 38.9865C260.8 35.4561 263.989 32.8023 267.803 31.5944C271.616 30.3864 275.752 30.7206 279.323 32.5251C281.473 33.6284 283.856 34.2039 286.274 34.2039C288.691 34.2039 291.074 33.6284 293.225 32.5251L294.407 31.8998C297.956 30.0348 302.098 29.6416 305.935 30.8053C309.773 31.969 312.998 34.596 314.912 38.118L319.639 46.7332C320.815 48.8986 321.614 51.2479 322.003 53.681L326.382 74.6979H327.807L327.529 61.1845C327.529 61.1845 337.886 7.1658 285.752 8.27744Z" fill="#070707"/>
<path d="M311.958 0.982296C318.052 0.247694 324.23 1.19688 329.822 3.72666C334.174 5.42095 337.83 8.52617 340.206 12.5448C342.582 16.5634 343.539 21.2628 342.925 25.89C340.736 48.9217 310.394 45.17 262.987 44.8226C262.987 44.8226 245.922 45.5173 258.573 21.1308C274.225 9.72725 292.671 2.76549 311.958 0.982296Z" fill="#070707"/>
<path d="M328.12 83.4868C333.611 83.4868 337.886 76.018 337.747 70.2166C337.608 64.4152 333.125 62.3656 327.668 62.4699L328.12 83.4868Z" fill="#E8878B"/>
<path d="M333.403 69.1397C332.267 70.0433 331.374 71.2147 330.804 72.5487C330.234 73.8828 330.004 75.3375 330.136 76.7822C331.141 76.0547 332.374 75.7098 333.611 75.8095" stroke="#B73D46" stroke-width="0.5" stroke-miterlimit="10"/>
<path d="M246.686 85.2237C241.195 85.2237 236.607 78.276 236.468 72.4051C236.329 66.5343 240.743 64.3457 246.234 64.2415L246.686 85.2237Z" fill="#E8878B"/>
<path d="M241.091 71.1198C242.239 71.9916 243.157 73.1314 243.762 74.4395C244.368 75.7475 244.644 77.184 244.566 78.6234C243.543 77.9455 242.308 77.6616 241.091 77.8244" stroke="#B73D46" stroke-width="0.5" stroke-miterlimit="10"/>
<path d="M286.169 75.6706C286.169 75.6706 284.744 92.2757 282.694 95.2285C280.643 98.1813 288.672 97.1738 288.672 97.1738" stroke="#B73D46" stroke-width="0.5" stroke-miterlimit="10"/>
<path d="M281.965 108.985C285.097 109.697 288.347 109.707 291.483 109.017C294.62 108.326 297.565 106.951 300.107 104.99" stroke="#B73D46" stroke-width="0.5" stroke-miterlimit="10"/>
<path d="M308.275 76.7822C310.252 76.7822 311.855 75.1803 311.855 73.2041C311.855 71.228 310.252 69.626 308.275 69.626C306.298 69.626 304.695 71.228 304.695 73.2041C304.695 75.1803 306.298 76.7822 308.275 76.7822Z" fill="#070707"/>
<path d="M299.654 68.4102L298.438 66.7774C301.341 64.332 304.995 62.9564 308.791 62.8805C312.586 62.8046 316.293 64.0331 319.291 66.3606L318.005 67.9238C315.374 65.8433 312.096 64.7522 308.742 64.8411C305.388 64.93 302.172 66.1931 299.654 68.4102Z" fill="#070707"/>
<path d="M266.568 77.6854C268.545 77.6854 270.148 76.0835 270.148 74.1073C270.148 72.1312 268.545 70.5293 266.568 70.5293C264.591 70.5293 262.988 72.1312 262.988 74.1073C262.988 76.0835 264.591 77.6854 266.568 77.6854Z" fill="#070707"/>
<path d="M257.948 69.3134L256.662 67.7501C259.564 65.3047 263.219 63.9291 267.015 63.8532C270.81 63.7773 274.517 65.0058 277.515 67.3333L276.264 68.8965C273.641 66.8219 270.375 65.7282 267.031 65.8044C263.686 65.8805 260.474 67.1216 257.948 69.3134Z" fill="#070707"/>
<path d="M262.118 24.5699C262.118 24.5699 276.403 39.7507 251.483 55.001L247.521 53.5767C247.521 53.5767 252.074 14.6694 262.118 24.5699Z" fill="#070707"/>
<path d="M546.141 474.228L538.947 354.727L535.471 293.378C535.471 293.378 537.313 257.84 483.859 240.471C482.576 239.947 481.265 239.495 479.932 239.116L422.029 222.268C413.531 219.808 404.485 220.002 396.101 222.824L338.963 242.173H338.441C281.338 261.314 284.917 298.797 284.917 298.797L274.491 474.228H546.141Z" fill="#55AAFF"/>
<path d="M322.107 472.734L329.614 318.842" stroke="black" stroke-width="0.3" stroke-miterlimit="10"/>
<path d="M499.708 472.734L494.356 322.455" stroke="black" stroke-width="0.3" stroke-miterlimit="10"/>
<path d="M407.919 258.709C404.366 258.789 400.837 258.122 397.559 256.752C394.281 255.381 391.327 253.338 388.89 250.754C386.452 248.17 384.584 245.103 383.408 241.752C382.232 238.401 381.772 234.84 382.061 231.3L386.926 170.473C387.312 165.745 389.437 161.329 392.89 158.076C396.344 154.823 400.881 152.965 405.625 152.86C410.363 152.756 414.972 154.415 418.555 157.516C422.139 160.616 424.442 164.937 425.019 169.639L432.561 230.223C432.994 233.745 432.684 237.318 431.651 240.712C430.618 244.106 428.884 247.247 426.563 249.93C424.241 252.614 421.382 254.782 418.171 256.294C414.96 257.806 411.468 258.629 407.919 258.709Z" fill="#E8878B"/>
<path d="M430.891 216.814C430.891 216.814 396.136 222.546 386.057 195.311L427.277 187.668L430.891 216.814Z" fill="#D6656D"/>
<path d="M403.774 82.2385L403.739 82.2393C381.267 82.7255 363.444 101.328 363.931 123.789L364.725 160.465C365.211 182.926 383.823 200.74 406.295 200.254L406.33 200.253C428.802 199.767 446.625 181.164 446.138 158.703L445.344 122.028C444.858 99.5666 426.246 81.7524 403.774 82.2385Z" fill="#E8878B"/>
<path d="M403.921 81.5067C353.074 82.6183 364.23 136.255 364.23 136.255L364.508 149.768H365.933L369.409 130.071C369.713 127.372 370.527 124.755 371.807 122.359L377.125 112.355C379.003 108.824 382.194 106.172 386.01 104.97C389.826 103.767 393.962 104.112 397.526 105.928C399.679 107.023 402.061 107.594 404.477 107.594C406.893 107.594 409.275 107.023 411.428 105.928L412.61 105.303C416.162 103.447 420.3 103.059 424.135 104.222C427.97 105.385 431.195 108.006 433.116 111.521L437.808 120.171C439.003 122.331 439.814 124.682 440.206 127.119L444.585 147.962H446.01L445.628 134.379C445.628 134.379 455.742 80.395 403.921 81.5067Z" fill="#070707"/>
<path d="M446.114 156.716C451.606 156.716 455.916 149.247 455.777 143.446C455.637 137.644 451.154 135.595 445.663 135.699L446.114 156.716Z" fill="#E8878B"/>
<path d="M451.398 142.369C450.27 143.279 449.382 144.451 448.812 145.783C448.243 147.116 448.009 148.568 448.131 150.011C449.139 149.291 450.373 148.958 451.607 149.074" stroke="#B73D46" stroke-width="0.5" stroke-miterlimit="10"/>
<path d="M364.717 158.488C359.225 158.488 354.603 151.54 354.498 145.634C354.394 139.729 358.773 137.61 364.265 137.471L364.717 158.488Z" fill="#E8878B"/>
<path d="M359.087 144.384C360.235 145.248 361.153 146.382 361.759 147.684C362.365 148.987 362.641 150.418 362.563 151.853C361.534 151.186 360.304 150.903 359.087 151.054" stroke="#B73D46" stroke-width="0.5" stroke-miterlimit="10"/>
<path d="M404.2 148.935C404.2 148.935 402.74 165.54 400.724 168.458C398.709 171.376 406.702 170.438 406.702 170.438" stroke="#B73D46" stroke-width="0.5" stroke-miterlimit="10"/>
<path d="M399.995 182.214C403.123 182.93 406.371 182.94 409.504 182.243C412.636 181.546 415.574 180.16 418.102 178.185" stroke="#B73D46" stroke-width="0.5" stroke-miterlimit="10"/>
<path d="M426.269 150.011C428.246 150.011 429.849 148.41 429.849 146.433C429.849 144.457 428.246 142.855 426.269 142.855C424.292 142.855 422.689 144.457 422.689 146.433C422.689 148.41 424.292 150.011 426.269 150.011Z" fill="#070707"/>
<path d="M417.824 141.639L416.538 140.111C419.42 137.698 423.039 136.339 426.798 136.257C430.557 136.174 434.232 137.375 437.217 139.659L435.966 141.223C433.357 139.193 430.126 138.126 426.82 138.202C423.515 138.278 420.337 139.492 417.824 141.639Z" fill="#070707"/>
<path d="M384.598 150.915C386.575 150.915 388.178 149.313 388.178 147.337C388.178 145.36 386.575 143.758 384.598 143.758C382.621 143.758 381.019 145.36 381.019 147.337C381.019 149.313 382.621 150.915 384.598 150.915Z" fill="#070707"/>
<path d="M376.117 142.543L374.831 141.014C377.714 138.601 381.333 137.242 385.092 137.16C388.851 137.078 392.525 138.278 395.511 140.563L394.26 142.126C391.65 140.096 388.42 139.029 385.114 139.105C381.808 139.181 378.63 140.395 376.117 142.543Z" fill="#070707"/>
<path d="M449.904 72.4399C449.904 72.4399 473.121 117.6 445.386 122.012C445.386 122.012 415.287 106.345 384.702 113.571C384.702 113.571 374.032 114.508 371.634 122.22L371.252 104.851L403.783 82.2709C403.783 82.2709 409.692 68.827 406.946 66.2216L449.904 72.4399Z" fill="#070707"/>
<path d="M442.361 84.1468C442.361 84.1468 449.729 105.164 436.592 106.449" stroke="white" stroke-width="0.5" stroke-miterlimit="10"/>
<path d="M384.597 165.158C394.502 165.158 402.531 157.132 402.531 147.232C402.531 137.333 394.502 129.307 384.597 129.307C374.692 129.307 366.663 137.333 366.663 147.232C366.663 157.132 374.692 165.158 384.597 165.158Z" stroke="#F9EAEC" stroke-width="0.5" stroke-miterlimit="10"/>
<path d="M426.27 165.158C436.175 165.158 444.204 157.132 444.204 147.232C444.204 137.333 436.175 129.307 426.27 129.307C416.365 129.307 408.336 137.333 408.336 147.232C408.336 157.132 416.365 165.158 426.27 165.158Z" stroke="#F9EAEC" stroke-width="0.5" stroke-miterlimit="10"/>
<path d="M402.532 147.232H408.336" stroke="#F9EAEC" stroke-width="0.5" stroke-miterlimit="10"/>
<path d="M393.495 485.97L477.361 485.31C477.361 485.31 495.677 468.427 481.705 452.621L393.738 453.697L393.495 485.97Z" fill="#E8878B"/>
<path d="M445.212 485.553C445.212 485.553 455.326 466.308 443.995 453.42L439.095 453.663L435.619 485.622L445.212 485.553Z" fill="#DD7A81"/>
<path d="M515.905 488.297L522.23 486.838C523.735 486.488 525.14 485.796 526.335 484.816C527.53 483.836 528.483 482.594 529.122 481.187C529.76 479.78 530.066 478.246 530.016 476.702C529.966 475.157 529.562 473.646 528.834 472.283L520.979 457.692C520.12 456.106 518.851 454.779 517.305 453.851C515.758 452.922 513.99 452.425 512.186 452.412H483.478C480.816 452.421 478.267 453.482 476.385 455.363C474.504 457.244 473.442 459.792 473.433 462.452V480.446C473.428 481.662 473.667 482.867 474.136 483.989C474.604 485.111 475.293 486.128 476.161 486.979C477.029 487.831 478.06 488.5 479.191 488.947C480.322 489.394 481.532 489.61 482.748 489.583L516.044 488.297" fill="#E8878B"/>
<path d="M516.287 475.305L524.246 486.352C524.954 487.342 525.896 488.142 526.987 488.681C528.078 489.22 529.285 489.482 530.502 489.444H531.302C531.925 489.419 532.532 489.24 533.068 488.923C533.605 488.605 534.054 488.159 534.374 487.625C534.695 487.091 534.878 486.485 534.906 485.862C534.933 485.24 534.806 484.62 534.534 484.059L529.633 474.228L516.287 475.305Z" fill="#E8878B"/>
<path d="M510.518 461.236C510.518 461.236 518.929 469.747 515.905 486.873C515.65 488.398 514.8 489.76 513.541 490.66C512.333 491.497 510.936 492.022 509.475 492.188C508.631 492.265 507.78 492.158 506.981 491.875C506.182 491.593 505.454 491.14 504.846 490.549C504.239 489.959 503.766 489.243 503.461 488.453C503.156 487.662 503.026 486.815 503.08 485.97C503.358 480.516 503.289 470.685 499.326 465.752C499.302 464.609 499.643 463.487 500.299 462.55C500.955 461.613 501.893 460.91 502.976 460.541C504.209 460.107 505.521 459.944 506.823 460.064C508.125 460.184 509.385 460.584 510.518 461.236Z" fill="#E8878B"/>
<path d="M513.924 466.655C516.625 473.036 517.317 480.089 515.905 486.873C515.65 488.398 514.8 489.76 513.542 490.66C512.333 491.497 510.936 492.022 509.475 492.188C508.631 492.265 507.78 492.158 506.981 491.875C506.182 491.593 505.454 491.14 504.846 490.549C504.239 489.959 503.766 489.243 503.462 488.453C503.157 487.662 503.027 486.815 503.08 485.97C503.448 480.946 503.038 475.896 501.864 470.997" stroke="#B73D46" stroke-width="0.3" stroke-miterlimit="10" stroke-linecap="round"/>
<path d="M498.7 463.007C498.7 463.007 507.111 471.518 504.122 488.645C503.841 490.169 502.982 491.525 501.724 492.431C500.556 493.29 499.196 493.85 497.762 494.064C496.918 494.141 496.067 494.034 495.268 493.751C494.469 493.468 493.741 493.016 493.133 492.425C492.525 491.835 492.053 491.119 491.748 490.329C491.443 489.538 491.313 488.691 491.367 487.846C491.68 482.392 491.575 472.561 487.613 467.628C487.577 466.505 487.892 465.4 488.515 464.465C489.138 463.531 490.038 462.815 491.089 462.417C492.324 461.957 493.645 461.771 494.96 461.873C496.274 461.975 497.551 462.362 498.7 463.007Z" fill="#E8878B"/>
<path d="M501.967 468.114C504.794 474.57 505.547 481.743 504.122 488.645C503.841 490.169 502.982 491.525 501.724 492.431C500.556 493.29 499.196 493.85 497.762 494.064V494.064C496.918 494.141 496.067 494.034 495.268 493.751C494.469 493.468 493.741 493.016 493.133 492.425C492.525 491.835 492.053 491.119 491.748 490.329C491.443 489.538 491.313 488.691 491.367 487.846C491.662 483.324 491.382 478.783 490.533 474.332" stroke="#B73D46" stroke-width="0.3" stroke-miterlimit="10" stroke-linecap="round"/>
<path d="M524.246 486.352L516.287 475.305" stroke="#B73D46" stroke-width="0.3" stroke-miterlimit="10" stroke-linecap="round"/>
<path d="M293.19 342.047L297.639 435.842L433.186 439.003C434.371 439.011 435.532 439.338 436.547 439.949C437.563 440.561 438.394 441.434 438.956 442.477C447.749 459.534 438.434 477.216 433.847 484.163C433.22 485.125 432.357 485.91 431.342 486.445C430.326 486.98 429.19 487.247 428.042 487.22L296.527 483.642L264.274 483.816C262.28 483.826 260.305 483.435 258.466 482.666C256.628 481.896 254.963 480.764 253.571 479.338C252.18 477.911 251.09 476.219 250.367 474.362C249.644 472.506 249.303 470.522 249.363 468.531L252.63 358.096L243.316 289.453C292.078 301.854 293.19 342.047 293.19 342.047Z" fill="#6CE08D"/>
<path d="M297.639 435.946C297.639 435.946 292.182 438.169 285.892 448.209" stroke="black" stroke-width="0.3" stroke-miterlimit="10"/>
<path d="M264.586 336.072L260.311 494.064H95.8473L91.5028 336.072C89.0004 314.534 99.8789 294.004 117.257 287.438L166.818 268.818C174.038 266.073 182.016 266.073 189.236 268.818L238.867 287.438C256.21 294.004 267.123 314.534 264.586 336.072Z" fill="#6CE08D"/>
<path d="M260.242 436.085V406.244" stroke="black" stroke-width="0.3" stroke-miterlimit="10"/>
<path d="M133.384 486.56L217.249 485.866C217.249 485.866 235.566 468.983 221.594 453.211L133.627 454.253L133.384 486.56Z" fill="#E8878B"/>
<path d="M184.962 486.143C184.962 486.143 195.076 466.898 183.745 453.975L178.845 454.219L175.369 486.213L184.962 486.143Z" fill="#DD7A81"/>
<path d="M255.723 488.888L262.049 487.394C263.554 487.043 264.959 486.351 266.154 485.371C267.349 484.392 268.302 483.15 268.941 481.743C269.579 480.336 269.885 478.801 269.835 477.257C269.785 475.713 269.381 474.201 268.653 472.838L260.798 458.283C259.945 456.692 258.677 455.361 257.129 454.431C255.581 453.502 253.811 453.008 252.005 453.003H223.192C220.546 453.021 218.012 454.075 216.134 455.939C214.256 457.802 213.184 460.328 213.148 462.973V481.002C213.138 482.218 213.374 483.423 213.841 484.545C214.308 485.668 214.997 486.685 215.867 487.534C216.737 488.384 217.769 489.05 218.902 489.491C220.036 489.933 221.247 490.141 222.462 490.104L255.758 488.853" fill="#E8878B"/>
<path d="M256.106 475.861L264.066 487.116C264.774 488.106 265.715 488.906 266.806 489.445C267.897 489.984 269.105 490.246 270.322 490.208H271.121C271.743 490.19 272.35 490.016 272.887 489.703C273.425 489.389 273.875 488.946 274.196 488.414C274.518 487.882 274.701 487.277 274.728 486.656C274.756 486.035 274.627 485.417 274.353 484.858L269.453 475.027L256.106 475.861Z" fill="#E8878B"/>
<path d="M250.337 461.826C250.337 461.826 258.748 470.303 255.724 487.464C255.603 488.216 255.331 488.936 254.925 489.58C254.519 490.225 253.987 490.781 253.361 491.215C252.156 492.065 250.758 492.602 249.294 492.779C248.45 492.849 247.6 492.738 246.802 492.453C246.004 492.169 245.276 491.717 244.667 491.128C244.058 490.539 243.583 489.827 243.272 489.039C242.961 488.251 242.822 487.406 242.864 486.56C243.177 481.106 243.108 471.275 239.145 466.308C239.109 465.185 239.424 464.08 240.047 463.145C240.671 462.211 241.57 461.495 242.621 461.097C243.882 460.646 245.227 460.478 246.56 460.604C247.893 460.73 249.183 461.147 250.337 461.826Z" fill="#E8878B"/>
<path d="M253.742 467.246C256.448 473.626 257.139 480.68 255.723 487.464C255.602 488.216 255.33 488.936 254.924 489.58C254.518 490.225 253.986 490.781 253.36 491.215C252.155 492.065 250.757 492.602 249.293 492.779V492.779C248.449 492.849 247.599 492.738 246.801 492.453C246.003 492.169 245.275 491.717 244.666 491.128C244.057 490.539 243.582 489.827 243.271 489.039C242.96 488.251 242.821 487.406 242.863 486.56C243.26 481.527 242.861 476.463 241.682 471.553" stroke="#B73D46" stroke-width="0.3" stroke-miterlimit="10" stroke-linecap="round"/>
<path d="M238.518 463.598C238.518 463.598 246.929 472.109 243.906 489.235C243.784 489.987 243.513 490.707 243.106 491.352C242.7 491.997 242.168 492.553 241.542 492.987C240.337 493.837 238.94 494.374 237.476 494.55C236.632 494.627 235.781 494.52 234.982 494.238C234.183 493.955 233.454 493.502 232.847 492.912C232.239 492.321 231.767 491.606 231.462 490.815C231.157 490.025 231.027 489.178 231.081 488.332C231.393 482.878 231.289 473.047 227.327 468.079C227.29 466.957 227.606 465.851 228.229 464.917C228.852 463.983 229.752 463.266 230.803 462.869C232.064 462.418 233.408 462.249 234.742 462.375C236.075 462.502 237.364 462.919 238.518 463.598Z" fill="#E8878B"/>
<path d="M241.785 468.67C244.612 475.138 245.353 482.326 243.906 489.235C243.784 489.987 243.513 490.707 243.107 491.352C242.7 491.997 242.168 492.553 241.542 492.987C240.337 493.837 238.94 494.374 237.476 494.55C236.632 494.627 235.781 494.52 234.982 494.238C234.183 493.955 233.454 493.502 232.847 492.912C232.239 492.321 231.767 491.606 231.462 490.815C231.157 490.025 231.027 489.178 231.081 488.332C231.377 483.81 231.097 479.27 230.247 474.819" stroke="#B73D46" stroke-width="0.3" stroke-miterlimit="10" stroke-linecap="round"/>
<path d="M264.066 486.942L256.106 475.861" stroke="#B73D46" stroke-width="0.3" stroke-miterlimit="10" stroke-linecap="round"/>
<path d="M113.224 388.423L97.4453 305.05L4.57811 446.993C1.84713 451.164 0.289023 455.993 0.0670946 460.973C-0.154834 465.954 0.967587 470.902 3.31672 475.299C5.66585 479.697 9.1552 483.382 13.4191 485.968C17.6829 488.555 22.5643 489.947 27.5516 489.999L167.756 491.424C168.901 491.457 170.036 491.197 171.052 490.668C172.068 490.139 172.932 489.359 173.56 488.401C178.148 481.454 187.463 463.806 178.669 446.715C178.102 445.677 177.269 444.808 176.255 444.197C175.241 443.587 174.083 443.257 172.9 443.241L72.456 440.914L113.224 388.423Z" fill="#6CE08D"/>
<path d="M72.9081 441.122C72.9081 441.122 67.4514 443.311 61.1606 453.385" stroke="black" stroke-width="0.3" stroke-miterlimit="10" stroke-linecap="round"/>
<path d="M93.6235 413.609L129.457 362.96" stroke="black" stroke-width="0.3" stroke-miterlimit="10"/>
<path d="M192.294 163.177C185.478 177.945 173.321 189.587 158.268 195.762C133.939 204.968 149.545 228.834 149.545 228.834C149.545 228.834 137.137 247.662 152.777 255.478C168.417 263.294 176.202 262.426 179.886 261.453C179.886 261.453 188.158 288.098 227.224 272.952C266.289 257.806 234.557 234.357 234.557 234.357C234.557 234.357 250.788 210.492 227.085 186.001C227.085 186.001 220.655 177.698 222.566 159.252" fill="#070707"/>
<path d="M182.215 305.641C178.865 305.638 175.553 304.934 172.492 303.574C169.431 302.214 166.689 300.228 164.442 297.744C162.196 295.26 160.496 292.333 159.45 289.152C158.405 285.971 158.038 282.606 158.373 279.274L164.107 221.955C164.566 217.484 166.675 213.345 170.023 210.345C173.372 207.345 177.719 205.7 182.215 205.732C186.693 205.736 191.01 207.401 194.33 210.404C197.65 213.408 199.736 217.537 200.184 221.99L206.057 279.309C206.387 282.638 206.016 285.999 204.969 289.176C203.921 292.353 202.219 295.275 199.974 297.755C197.728 300.236 194.988 302.218 191.929 303.577C188.871 304.935 185.562 305.638 182.215 305.641Z" fill="#E8878B"/>
<path d="M219.823 223.348C226.368 221.386 230.082 214.491 228.118 207.949C226.155 201.407 219.257 197.695 212.712 199.658C206.166 201.62 202.452 208.515 204.416 215.057C206.38 221.599 213.277 225.311 219.823 223.348Z" stroke="white" stroke-width="0.5" stroke-miterlimit="10"/>
<path d="M204.842 267.428C204.842 267.428 170.086 267.428 163.135 232.273L200.115 221.851L204.842 267.428Z" fill="#D6656D"/>
<path d="M186.143 133.65H178.323C159.262 133.65 143.811 149.094 143.811 168.145V210.561C143.811 229.612 159.262 245.057 178.323 245.057H186.143C205.204 245.057 220.655 229.612 220.655 210.561V168.145C220.655 149.094 205.204 133.65 186.143 133.65Z" fill="#E8878B"/>
<path d="M161.848 170.16C161.848 170.16 165.323 163.629 193.962 162.691C193.962 162.691 214.19 179.227 226.146 158.106C238.102 136.984 204.215 90.643 182.493 126.424C182.493 126.424 162.612 118.886 138.839 132.851C127.695 139.871 119.406 150.618 115.449 163.177C108.652 177.947 96.5056 189.592 81.4578 195.762C57.1289 204.968 72.7342 228.834 72.7342 228.834C72.7342 228.834 60.3264 247.662 75.9317 255.478C91.537 263.294 99.3918 262.426 103.076 261.453C103.076 261.453 111.313 288.098 150.378 272.952C189.444 257.806 157.747 234.357 157.747 234.357C157.747 234.357 177.766 218.273 154.271 205.42C154.236 205.42 155.731 178.671 161.848 170.16Z" fill="#070707"/>
<path d="M153.994 204.829C148.815 204.829 144.61 197.881 144.61 192.497C144.61 187.112 148.815 184.889 153.994 184.889V204.829Z" fill="#E8878B"/>
<path d="M148.78 191.385C149.867 192.219 150.732 193.309 151.296 194.557C151.86 195.806 152.106 197.175 152.012 198.541C151.068 197.889 149.922 197.593 148.78 197.708" stroke="#B73D46" stroke-width="0.3" stroke-miterlimit="10"/>
<path d="M189.131 190.065C189.131 190.065 190.834 205.698 192.885 208.407C194.935 211.117 187.289 210.387 187.289 210.387" stroke="#B73D46" stroke-width="0.3" stroke-miterlimit="10"/>
<path d="M182.875 223.345C185.592 224.629 188.559 225.295 191.564 225.295C194.569 225.295 197.536 224.629 200.253 223.345" stroke="#B73D46" stroke-width="0.3" stroke-miterlimit="10"/>
<path d="M212.14 192.011C214.04 192.011 215.581 190.471 215.581 188.571C215.581 186.672 214.04 185.132 212.14 185.132C210.24 185.132 208.699 186.672 208.699 188.571C208.699 190.471 210.24 192.011 212.14 192.011Z" fill="#070707"/>
<path d="M203.938 183.951L202.687 182.457C205.461 180.143 208.94 178.84 212.554 178.765C216.167 178.689 219.698 179.844 222.567 182.041L221.35 183.569C218.854 181.604 215.752 180.567 212.575 180.637C209.399 180.706 206.345 181.878 203.938 183.951Z" fill="#070707"/>
<path d="M172.032 192.879C173.932 192.879 175.473 191.339 175.473 189.44C175.473 187.541 173.932 186.001 172.032 186.001C170.132 186.001 168.591 187.541 168.591 189.44C168.591 191.339 170.132 192.879 172.032 192.879Z" fill="#070707"/>
<path d="M163.83 184.889L162.579 183.395C165.358 181.078 168.844 179.774 172.463 179.698C176.082 179.623 179.619 180.779 182.494 182.979L181.277 184.507C178.762 182.57 175.66 181.551 172.486 181.621C169.312 181.69 166.257 182.844 163.83 184.889Z" fill="#070707"/>
<path d="M149.302 211.534C149.302 211.534 160.042 224.179 149.546 228.903" stroke="white" stroke-width="0.5" stroke-miterlimit="10"/>
<path d="M82.1533 245.057C82.1533 245.057 85.3856 257.111 105.44 252.421" stroke="white" stroke-width="0.5" stroke-miterlimit="10"/>
<path d="M183.192 174.551C191.649 172.015 196.449 163.106 193.911 154.653C191.374 146.2 182.461 141.403 174.004 143.939C165.546 146.475 160.747 155.384 163.285 163.837C165.822 172.29 174.735 177.087 183.192 174.551Z" fill="#070707"/>
<path d="M266.359 354.866C266.359 354.866 275.048 370.429 274.388 380.399C273.727 390.369 260.242 406.244 260.242 406.244" stroke="black" stroke-width="0.3" stroke-miterlimit="10"/>
<path d="M376.117 494.029H211.549C210.627 494.029 209.743 493.663 209.091 493.012C208.44 492.36 208.073 491.477 208.073 490.555V484.962C208.073 484.041 208.44 483.157 209.091 482.506C209.743 481.854 210.627 481.488 211.549 481.488H376.117V493.96V494.029Z" fill="#7988BF"/>
<path d="M593.618 344.687H408.544C407.359 344.693 406.207 345.082 405.261 345.795C404.315 346.509 403.626 347.51 403.296 348.648L361.589 494.133H556.221L598.762 351.705C599.004 350.897 599.055 350.045 598.912 349.214C598.768 348.383 598.434 347.597 597.936 346.917C597.438 346.237 596.788 345.682 596.039 345.295C595.29 344.908 594.461 344.7 593.618 344.687Z" fill="#A0BAEA"/>
<path d="M600.744 344.687H415.67C414.483 344.687 413.329 345.074 412.382 345.789C411.435 346.503 410.747 347.507 410.422 348.648L368.715 494.133H559.246C560.422 494.132 561.567 493.754 562.512 493.053C563.456 492.353 564.151 491.367 564.494 490.243L605.992 351.635C606.223 350.824 606.263 349.969 606.108 349.14C605.953 348.311 605.607 347.528 605.099 346.855C604.59 346.182 603.932 345.635 603.176 345.259C602.421 344.883 601.588 344.687 600.744 344.687Z" fill="#B8CAFC"/>
<path d="M493.731 441.817C505.037 441.817 514.202 432.656 514.202 421.356C514.202 410.055 505.037 400.895 493.731 400.895C482.425 400.895 473.26 410.055 473.26 421.356C473.26 432.656 482.425 441.817 493.731 441.817Z" fill="white"/>
</svg>
