<svg width="901" height="567" viewBox="0 0 901 567" fill="none" xmlns="http://www.w3.org/2000/svg">
<path d="M597.498 141.351H418.009C413.768 141.351 410.33 144.789 410.33 149.03V269.969C410.33 274.21 413.768 277.648 418.009 277.648H597.498C601.738 277.648 605.176 274.21 605.176 269.969V149.03C605.176 144.789 601.738 141.351 597.498 141.351Z" fill="#F79110" fill-opacity="0.5"/>
<path d="M412.864 141.351H602.642C603.314 141.351 603.959 141.618 604.434 142.094C604.909 142.569 605.176 143.213 605.176 143.885V156.114H410.33V143.885C410.33 143.553 410.395 143.223 410.523 142.916C410.65 142.608 410.837 142.329 411.072 142.094C411.307 141.858 411.587 141.672 411.894 141.544C412.202 141.417 412.531 141.351 412.864 141.351Z" fill="#F79110" fill-opacity="0.7"/>
<path d="M470.953 218.983H428.24V261.696H470.953V218.983Z" fill="white"/>
<path d="M566.457 174.831H428.24V185.677H566.457V174.831Z" fill="white"/>
<path d="M566.457 196.907H428.24V207.753H566.457V196.907Z" fill="white"/>
<path d="M588.533 218.983H488.076V237.066H588.533V218.983Z" fill="white"/>
<path d="M528.447 243.612H488.076V261.696H528.447V243.612Z" fill="#F79110"/>
<path d="M127.505 355.74H116.524V565.023H127.505V355.74Z" fill="#CDDDFC"/>
<path d="M116.524 372.461L127.505 355.74H116.524V372.461Z" fill="#CDDDFC"/>
<path d="M682.174 281.948V382.827C682.174 385.108 681.725 387.367 680.852 389.475C679.979 391.583 678.699 393.498 677.086 395.111C675.473 396.725 673.557 398.004 671.45 398.877C669.342 399.75 667.083 400.2 664.801 400.2H586.997C586.422 400.2 585.87 400.428 585.463 400.835C585.056 401.242 584.828 401.794 584.828 402.369V406.362C584.828 406.937 585.056 407.489 585.463 407.896C585.87 408.303 586.422 408.531 586.997 408.531H775.125C777.41 408.544 779.675 408.103 781.788 407.235C783.902 406.366 785.822 405.087 787.438 403.471C789.053 401.855 790.333 399.935 791.201 397.822C792.07 395.708 792.51 393.443 792.498 391.158V281.948C792.498 279.671 792.048 277.417 791.173 275.314C790.299 273.212 789.018 271.303 787.404 269.697C785.789 268.092 783.873 266.821 781.766 265.959C779.659 265.096 777.402 264.658 775.125 264.671H699.49C697.218 264.666 694.967 265.109 692.866 265.975C690.766 266.841 688.857 268.113 687.248 269.718C685.64 271.323 684.364 273.229 683.493 275.328C682.622 277.426 682.174 279.676 682.174 281.948Z" fill="#D9EAFF"/>
<path d="M596.346 408.608L582.966 564.927H575.364L589.109 408.608H596.346Z" fill="#EEF4FF"/>
<path d="M678.489 408.608L693.328 564.927H685.918L670.906 408.608H678.489Z" fill="#EEF4FF"/>
<path d="M776.929 408.608L791.768 564.927H784.339L769.327 408.608H776.929Z" fill="#D3E1FF"/>
<path d="M743.277 408.608L758.116 564.927H750.687L733.142 408.608H743.277Z" fill="#D3E1FF"/>
<path d="M91.0502 281.948V382.827C91.0376 385.104 91.4751 387.361 92.3377 389.468C93.2003 391.575 94.4709 393.491 96.0765 395.106C97.6821 396.72 99.591 398.001 101.693 398.876C103.796 399.75 106.05 400.2 108.327 400.2H168.931C169.507 400.2 170.058 400.428 170.465 400.835C170.872 401.242 171.1 401.794 171.1 402.369V406.362C171.1 406.937 170.872 407.489 170.465 407.896C170.058 408.303 169.507 408.531 168.931 408.531H17.2773C15.0003 408.531 12.7458 408.081 10.6434 407.207C8.54099 406.333 6.63211 405.051 5.02653 403.437C3.42095 401.822 2.15034 399.906 1.28775 397.799C0.425164 395.692 -0.0123831 393.435 0.000266646 391.158V281.948C0.000231507 279.671 0.450276 277.417 1.32452 275.314C2.19877 273.212 3.47998 271.303 5.09448 269.697C6.70898 268.092 8.62493 266.821 10.7322 265.959C12.8394 265.096 15.0964 264.658 17.3733 264.671H73.8116C78.3793 264.706 82.7493 266.539 85.9757 269.773C89.2021 273.006 91.0251 277.38 91.0502 281.948Z" fill="#D9EAFF"/>
<path d="M159.582 408.608L172.963 564.927H180.564L166.82 408.608H159.582Z" fill="#EEF4FF"/>
<path d="M94.7168 408.608L79.8777 564.927H87.2877L102.319 408.608H94.7168Z" fill="#EEF4FF"/>
<path d="M15.4728 408.608L0.633759 564.927H8.06288L23.0747 408.608H15.4728Z" fill="#D3E1FF"/>
<path d="M49.1246 408.608L34.2856 564.927H41.7147L59.2605 408.608H49.1246Z" fill="#D3E1FF"/>
<path d="M545.167 514.152H522.285C520.192 522.582 515.807 530.27 509.615 536.362C503.491 542.275 494.027 548.014 479.419 551.163C479.419 551.163 475.08 552.43 476.098 558.554H537.527" fill="#E8878B"/>
<path d="M475.407 554.753H540.675L542.077 532.561H512.648C511.432 533.751 510.15 534.873 508.809 535.921C503.492 539.914 497.541 542.983 491.206 545.001C488.537 545.884 481.914 546.671 478.785 547.343C478.728 547.343 474.389 548.629 475.407 554.753Z" fill="#1C3D4F"/>
<path d="M475.253 554.753V560.742H540.349L540.637 554.753H475.253Z" fill="#FFF3F3"/>
<path d="M491.148 545.001C492.319 545.749 494.661 546.479 499.307 546.21C508.099 545.692 510.825 536.132 510.825 536.132L508.79 535.921C503.461 539.918 497.497 542.987 491.148 545.001Z" fill="white"/>
<path opacity="0.2" d="M540.291 560.742H507.177V554.753H507.331C506.313 548.629 510.652 547.343 510.652 547.343C513.781 546.671 520.404 545.884 523.072 545.001C529.408 542.983 535.359 539.914 540.675 535.921L541.846 534.999L540.291 560.742Z" fill="black"/>
<path d="M517.889 525.401L519.329 521.945H543.689L543.075 525.401H517.889Z" fill="#DD7A81"/>
<path d="M557.703 385.361L519.31 521.945H552.731L590.702 390.313C590.766 389.339 591.198 388.426 591.911 387.759C592.624 387.092 593.565 386.722 594.541 386.724C594.541 386.724 601.798 388.451 612.471 390.774C637.811 396.245 682.424 404.999 694.595 401.505C696.2 401.065 697.742 400.419 699.183 399.585C713.369 391.408 711.852 368.295 711.526 362.306L676.089 344.817C674.803 349.06 654.8 343.589 650.634 343.57H647.678L615.543 343.282L584.175 343.051C580.108 343.014 576.141 344.307 572.877 346.733C569.612 349.159 567.23 352.584 566.092 356.489L557.703 385.361Z" fill="#76B9DD"/>
<path d="M649.847 380.677L582.87 379.237" stroke="#5DABCE" stroke-width="0.3" stroke-miterlimit="10"/>
<path d="M655.644 347.831C655.644 347.831 647.255 379.083 669.37 379.64" stroke="#5DABCE" stroke-width="0.3" stroke-miterlimit="10"/>
<path d="M582.87 379.237L542.211 515.303" stroke="#5DABCE" stroke-width="0.3" stroke-miterlimit="10"/>
<path d="M588.744 339.692L543.689 339.327C543.689 339.327 533.841 330.247 541.347 321.762L588.61 322.319L588.744 339.692Z" fill="#E8878B"/>
<path d="M561.005 339.462C561.005 339.462 555.572 329.115 561.638 322.185L564.287 322.3L566.207 339.577L561.005 339.462Z" fill="#DD7A81"/>
<path d="M523.014 340.94L519.597 340.153C518.789 339.963 518.035 339.59 517.393 339.062C516.752 338.534 516.241 337.865 515.899 337.108C515.558 336.351 515.395 335.525 515.424 334.695C515.453 333.865 515.672 333.052 516.065 332.32L520.289 324.488C520.744 323.635 521.422 322.921 522.25 322.421C523.077 321.921 524.025 321.654 524.992 321.647H540.349C541.055 321.645 541.754 321.781 542.407 322.049C543.061 322.317 543.655 322.71 544.155 323.208C544.656 323.705 545.054 324.296 545.327 324.947C545.599 325.599 545.741 326.297 545.743 327.003V336.601C545.749 337.254 545.623 337.901 545.372 338.503C545.122 339.106 544.753 339.652 544.288 340.109C543.822 340.566 543.269 340.924 542.661 341.163C542.054 341.401 541.404 341.515 540.752 341.496L522.861 340.825" fill="#E8878B"/>
<path d="M522.803 333.952L518.542 339.903C518.158 340.431 517.652 340.857 517.066 341.144C516.481 341.432 515.834 341.573 515.182 341.554H514.721C514.387 341.54 514.061 341.443 513.773 341.272C513.485 341.1 513.245 340.86 513.073 340.572C512.902 340.284 512.805 339.958 512.791 339.624C512.777 339.289 512.847 338.956 512.994 338.655L515.643 333.376L522.803 333.952Z" fill="#E8878B"/>
<path d="M525.856 326.389C525.856 326.389 521.344 330.957 522.957 340.172C523.107 340.991 523.568 341.72 524.243 342.207C524.896 342.652 525.647 342.935 526.431 343.032C526.884 343.072 527.34 343.013 527.769 342.86C528.197 342.708 528.587 342.465 528.913 342.148C529.239 341.831 529.493 341.448 529.658 341.024C529.823 340.6 529.894 340.146 529.868 339.692C529.714 336.755 529.752 331.476 531.883 328.807C531.896 328.198 531.718 327.601 531.373 327.098C531.029 326.595 530.536 326.213 529.964 326.005C529.292 325.77 528.577 325.682 527.868 325.749C527.159 325.815 526.472 326.033 525.856 326.389Z" fill="#E8878B"/>
<path d="M524.07 329.306C522.624 332.737 522.249 336.525 522.995 340.172C523.145 340.991 523.606 341.72 524.281 342.207C524.935 342.652 525.685 342.935 526.47 343.032V343.032C526.923 343.071 527.379 343.013 527.807 342.86C528.235 342.708 528.626 342.465 528.952 342.148C529.278 341.831 529.532 341.448 529.696 341.024C529.861 340.6 529.933 340.146 529.906 339.692C529.696 336.987 529.917 334.265 530.559 331.629" stroke="#B73D46" stroke-width="0.3" stroke-miterlimit="10" stroke-linecap="round"/>
<path d="M532.248 327.348C532.248 327.348 527.737 331.917 529.349 341.132C529.504 341.943 529.964 342.665 530.636 343.147C531.272 343.612 532.021 343.897 532.805 343.973C533.259 344.012 533.717 343.953 534.147 343.8C534.577 343.646 534.968 343.401 535.294 343.082C535.621 342.763 535.874 342.377 536.038 341.951C536.201 341.525 536.27 341.069 536.241 340.613C536.068 337.695 536.107 332.416 538.257 329.748C538.269 329.139 538.091 328.541 537.747 328.038C537.402 327.536 536.91 327.153 536.337 326.945C535.667 326.715 534.954 326.631 534.249 326.701C533.543 326.77 532.861 326.991 532.248 327.348Z" fill="#E8878B"/>
<path d="M530.501 330.074C528.986 333.553 528.583 337.415 529.349 341.132C529.504 341.943 529.964 342.665 530.635 343.147C531.272 343.612 532.021 343.897 532.805 343.973V343.973C533.259 344.012 533.717 343.953 534.147 343.8C534.577 343.646 534.968 343.401 535.294 343.082C535.621 342.763 535.874 342.377 536.038 341.951C536.201 341.525 536.27 341.069 536.241 340.613C536.061 338.186 536.209 335.745 536.682 333.357" stroke="#B73D46" stroke-width="0.3" stroke-miterlimit="10" stroke-linecap="round"/>
<path d="M518.542 339.903L522.803 333.952" stroke="#B73D46" stroke-width="0.3" stroke-miterlimit="10" stroke-linecap="round"/>
<path d="M642.687 267.896L640.287 312.797L567.512 314.486C566.872 314.498 566.247 314.682 565.702 315.02C565.158 315.358 564.716 315.837 564.422 316.406C559.699 325.582 564.71 335.046 567.167 338.809C567.501 339.326 567.962 339.747 568.507 340.033C569.052 340.319 569.662 340.459 570.277 340.44L640.882 338.348H658.159C659.231 338.353 660.293 338.143 661.281 337.73C662.27 337.317 663.165 336.709 663.914 335.942C664.663 335.175 665.25 334.266 665.639 333.268C666.029 332.269 666.214 331.203 666.183 330.132L664.417 270.737L669.428 233.937C638.924 247.471 642.687 267.896 642.687 267.896Z" fill="#F79110"/>
<path d="M640.287 312.797C640.287 312.797 643.224 313.987 646.603 319.382" stroke="black" stroke-width="0.3" stroke-miterlimit="10"/>
<path d="M710.585 222.957L737.23 232.977C746.579 236.471 752.415 247.529 751.071 259.104L748.23 356.643C747.386 363.918 735.81 369.85 729.84 371.597L726.192 372.691C712.079 376.876 697.055 376.876 682.942 372.691L679.295 371.597C673.325 369.85 661.73 365.224 660.885 357.948L658.063 259.104C656.72 247.586 662.555 236.471 671.885 232.977L698.626 222.957C702.479 221.498 706.732 221.498 710.585 222.957Z" fill="#F79110"/>
<path d="M660.386 312.855V270.43" stroke="black" stroke-width="0.3" stroke-miterlimit="10"/>
<path d="M660.482 343.934L748.672 341.208V330.919L730.704 293.812L661.154 337.887L660.482 343.934Z" fill="#F79110"/>
<path d="M675.379 339.692L630.324 339.327C630.324 339.327 620.476 330.247 627.963 321.762L675.244 322.319L675.379 339.692Z" fill="#E8878B"/>
<path d="M647.639 339.462C647.639 339.462 642.188 329.115 648.273 322.185L650.922 322.3L652.842 339.577L647.639 339.462Z" fill="#DD7A81"/>
<path d="M609.63 340.94L606.232 340.153C605.421 339.966 604.664 339.595 604.021 339.068C603.377 338.54 602.865 337.871 602.523 337.113C602.181 336.355 602.019 335.527 602.049 334.696C602.08 333.864 602.303 333.051 602.7 332.32L606.904 324.488C607.363 323.634 608.044 322.919 608.875 322.419C609.706 321.919 610.657 321.652 611.626 321.647H626.984C628.408 321.647 629.774 322.21 630.785 323.213C631.795 324.217 632.368 325.579 632.378 327.003V336.601C632.383 337.254 632.257 337.901 632.007 338.503C631.757 339.106 631.388 339.652 630.922 340.109C630.456 340.566 629.903 340.924 629.296 341.163C628.688 341.401 628.039 341.514 627.387 341.496L609.476 340.825" fill="#E8878B"/>
<path d="M609.419 333.952L605.157 339.903C604.775 340.432 604.269 340.859 603.683 341.147C603.097 341.434 602.45 341.574 601.798 341.554H601.356C601.011 341.568 600.668 341.488 600.364 341.324C600.061 341.159 599.807 340.916 599.63 340.619C599.453 340.322 599.359 339.983 599.359 339.637C599.359 339.292 599.452 338.952 599.629 338.655L602.258 333.376L609.419 333.952Z" fill="#E8878B"/>
<path d="M612.529 326.389C612.529 326.389 608.017 330.957 609.63 340.172C609.78 340.991 610.241 341.72 610.916 342.207C611.561 342.655 612.306 342.939 613.085 343.032C613.538 343.072 613.994 343.013 614.423 342.86C614.851 342.708 615.241 342.465 615.567 342.148C615.893 341.831 616.147 341.448 616.312 341.024C616.477 340.6 616.548 340.146 616.522 339.692C616.349 336.755 616.387 331.476 618.537 328.807C618.55 328.198 618.372 327.601 618.027 327.098C617.683 326.595 617.19 326.213 616.618 326.005C615.948 325.771 615.237 325.685 614.531 325.751C613.826 325.817 613.143 326.035 612.529 326.389Z" fill="#E8878B"/>
<path d="M610.705 329.306C609.249 332.734 608.874 336.525 609.63 340.172C609.78 340.991 610.241 341.72 610.916 342.207C611.561 342.655 612.306 342.939 613.085 343.032V343.032C613.538 343.071 613.994 343.013 614.423 342.86C614.851 342.708 615.241 342.465 615.567 342.148C615.893 341.831 616.147 341.448 616.312 341.024C616.477 340.6 616.548 340.146 616.522 339.692C616.312 336.987 616.532 334.265 617.174 331.629" stroke="#B73D46" stroke-width="0.3" stroke-miterlimit="10" stroke-linecap="round"/>
<path d="M618.883 327.348C618.883 327.348 614.372 331.917 615.984 341.132C616.124 341.944 616.58 342.669 617.251 343.147C617.896 343.608 618.651 343.893 619.439 343.973C619.894 344.012 620.352 343.953 620.782 343.8C621.211 343.646 621.603 343.401 621.929 343.082C622.255 342.763 622.509 342.377 622.672 341.951C622.836 341.525 622.905 341.069 622.876 340.613C622.722 337.695 622.76 332.416 624.891 329.748C624.91 329.138 624.734 328.537 624.389 328.033C624.044 327.53 623.547 327.149 622.972 326.945C622.302 326.712 621.589 326.627 620.883 326.697C620.177 326.767 619.494 326.989 618.883 327.348Z" fill="#E8878B"/>
<path d="M617.136 330.074C615.602 333.548 615.199 337.416 615.984 341.132C616.124 341.944 616.58 342.669 617.251 343.147C617.896 343.608 618.651 343.893 619.439 343.973V343.973C619.894 344.012 620.352 343.953 620.782 343.8C621.211 343.646 621.603 343.401 621.929 343.082C622.255 342.763 622.509 342.377 622.672 341.951C622.836 341.525 622.905 341.069 622.876 340.613C622.712 338.185 622.867 335.745 623.336 333.357" stroke="#B73D46" stroke-width="0.3" stroke-miterlimit="10" stroke-linecap="round"/>
<path d="M605.157 339.903L609.419 333.952" stroke="#B73D46" stroke-width="0.3" stroke-miterlimit="10" stroke-linecap="round"/>
<path d="M739.572 234.033L735.311 267.896L726.922 312.797L654.147 314.487C653.504 314.499 652.877 314.683 652.33 315.021C651.783 315.359 651.336 315.837 651.037 316.406C646.315 325.582 651.325 335.046 653.802 338.809C654.134 339.327 654.595 339.75 655.141 340.036C655.686 340.322 656.296 340.461 656.911 340.441L727.517 338.348H744.794C745.866 338.354 746.927 338.144 747.916 337.73C748.905 337.317 749.8 336.709 750.549 335.942C751.298 335.175 751.884 334.266 752.274 333.268C752.664 332.27 752.849 331.203 752.818 330.132L760.497 270.334C760.497 270.334 763.895 243.017 739.534 233.86" fill="#F79110"/>
<path d="M726.922 312.797C726.922 312.797 729.84 313.987 733.237 319.382" stroke="black" stroke-width="0.3" stroke-miterlimit="10"/>
<path d="M726.922 312.797L733.237 272.331" stroke="black" stroke-width="0.3" stroke-miterlimit="10"/>
<path d="M582.524 514.152H559.642C557.555 522.596 553.17 530.297 546.972 536.4C540.848 542.313 531.365 548.053 516.756 551.201C516.756 551.201 512.437 552.468 513.455 558.592H574.884" fill="#E8878B"/>
<path d="M512.629 554.753H577.898L579.299 532.561H549.871C548.654 533.751 547.372 534.873 546.031 535.921C540.715 539.914 534.764 542.983 528.428 545.001C525.76 545.884 519.137 546.671 516.008 547.343C515.95 547.343 511.612 548.629 512.629 554.753Z" fill="#1C3D4F"/>
<path d="M512.475 554.753V560.742H577.571L577.859 554.753H512.475Z" fill="#FFF3F3"/>
<path d="M528.37 545.001C529.541 545.749 531.883 546.479 536.529 546.21C545.321 545.692 548.047 536.132 548.047 536.132L546.012 535.921C540.684 539.918 534.72 542.987 528.37 545.001Z" fill="white"/>
<path d="M555.246 525.401L556.685 521.945H580.912L580.701 525.401H555.246Z" fill="#DD7A81"/>
<path d="M748.365 351.863C748.71 357.871 751.263 392.176 736.501 399.566C735.044 400.354 733.514 400.997 731.932 401.486C719.761 404.98 675.129 396.226 649.789 390.755C639.135 388.432 631.86 386.705 631.86 386.705C630.875 386.674 629.918 387.034 629.199 387.707C628.479 388.379 628.055 389.31 628.02 390.294L590.049 521.926H556.685L595.079 385.342L603.449 356.547C604.586 352.645 606.965 349.222 610.226 346.796C613.486 344.371 617.449 343.076 621.513 343.109L652.899 343.339L685.035 343.627H687.991L748.365 351.863Z" fill="#76B9DD"/>
<path d="M687.204 380.677L620.227 379.237" stroke="#5DABCE" stroke-width="0.3" stroke-miterlimit="10"/>
<path d="M693.001 347.831C693.001 347.831 684.593 379.083 706.727 379.64" stroke="#5DABCE" stroke-width="0.3" stroke-miterlimit="10"/>
<path d="M620.227 379.237L579.549 515.303" stroke="#5DABCE" stroke-width="0.3" stroke-miterlimit="10"/>
<path d="M702.465 241.981C704.383 241.848 706.252 241.314 707.95 240.413C709.649 239.513 711.14 238.266 712.327 236.754C713.513 235.241 714.37 233.497 714.84 231.633C715.311 229.769 715.385 227.827 715.058 225.932L714.809 190.399C713.906 185.158 702.081 184.544 696.783 184.909C691.465 185.274 689.642 189.439 689.469 194.738L687.799 227.814C687.735 229.734 688.075 231.646 688.797 233.427C689.518 235.208 690.605 236.818 691.987 238.153C693.369 239.488 695.015 240.518 696.82 241.178C698.625 241.837 700.548 242.111 702.465 241.981Z" fill="#E8878B"/>
<path d="M688.298 224.07C688.298 224.07 708.359 217.063 710.912 196.657H689.373L688.298 224.07Z" fill="#D6656D"/>
<path d="M694.682 212.932L695.352 212.886C707.304 212.063 716.326 201.706 715.503 189.754L714.093 169.282C713.27 157.33 702.913 148.308 690.961 149.131L690.291 149.177C678.339 150 669.317 160.357 670.14 172.309L671.551 192.782C672.374 204.734 682.73 213.755 694.682 212.932Z" fill="#E8878B"/>
<path d="M670.56 178.651C670.56 178.651 663.822 148.224 683.998 146.88C711.392 144.96 707.034 176.865 707.034 176.865L707.552 184.16H706.765L704.039 173.698C703.738 172.256 703.172 170.883 702.369 169.647L699.029 164.522C697.839 162.7 695.978 161.42 693.851 160.961C691.724 160.501 689.501 160.897 687.665 162.065C686.546 162.768 685.276 163.192 683.96 163.302C682.644 163.413 681.32 163.205 680.101 162.698L679.429 162.429C675.263 160.702 672.499 161.815 670.714 165.962" fill="#070707"/>
<path d="M707.495 184.16C707.495 184.16 707.61 189.919 714.809 196.542C714.809 196.542 727.287 165.674 713.81 152.217C695.401 133.788 677.03 148.992 677.03 148.992L703.617 163.754C703.617 163.754 705.268 173.909 707.495 184.16Z" fill="#070707"/>
<path d="M707.821 188.94C710.777 188.748 712.908 184.659 712.697 181.53C712.486 178.401 709.99 177.403 707.034 177.691L707.821 188.94Z" fill="#E8878B"/>
<path d="M710.432 181.031C709.843 181.547 709.39 182.201 709.116 182.935C708.841 183.669 708.752 184.459 708.858 185.235C709.378 184.831 710.023 184.621 710.681 184.64" stroke="#B73D46" stroke-width="0.3" stroke-miterlimit="10"/>
<path d="M684.363 182.049C684.363 182.049 684.017 191.071 682.961 192.703C681.906 194.335 686.244 193.624 686.244 193.624" stroke="#B73D46" stroke-width="0.3" stroke-miterlimit="10"/>
<path d="M688.778 201.687C687.151 202.293 685.41 202.53 683.68 202.381C681.95 202.232 680.275 201.699 678.776 200.823" stroke="#B73D46" stroke-width="0.3" stroke-miterlimit="10"/>
<path d="M695.458 181.396C696.413 181.396 697.186 180.622 697.186 179.668C697.186 178.714 696.413 177.94 695.458 177.94C694.504 177.94 693.731 178.714 693.731 179.668C693.731 180.622 694.504 181.396 695.458 181.396Z" fill="#070707"/>
<path d="M691.389 177.269L690.794 176.52C692.21 175.386 693.97 174.768 695.785 174.768C697.599 174.768 699.36 175.386 700.776 176.52L700.162 177.269C698.924 176.257 697.374 175.704 695.775 175.704C694.176 175.704 692.627 176.257 691.389 177.269Z" fill="#070707"/>
<path d="M675.321 181.396C676.275 181.396 677.049 180.622 677.049 179.668C677.049 178.714 676.275 177.94 675.321 177.94C674.367 177.94 673.593 178.714 673.593 179.668C673.593 180.622 674.367 181.396 675.321 181.396Z" fill="#070707"/>
<path d="M671.251 177.269L670.637 176.52C672.057 175.384 673.82 174.766 675.638 174.766C677.456 174.766 679.219 175.384 680.639 176.52L680.005 177.269C678.77 176.258 677.224 175.706 675.628 175.706C674.033 175.706 672.486 176.258 671.251 177.269Z" fill="#070707"/>
<path d="M348.516 281.948V382.827C348.504 385.104 348.941 387.361 349.804 389.468C350.667 391.575 351.937 393.491 353.543 395.106C355.148 396.72 357.057 398.001 359.16 398.876C361.262 399.75 363.517 400.2 365.793 400.2H426.417C426.992 400.2 427.544 400.428 427.951 400.835C428.357 401.242 428.586 401.794 428.586 402.369V406.362C428.586 406.937 428.357 407.489 427.951 407.896C427.544 408.303 426.992 408.531 426.417 408.531H274.763C272.478 408.544 270.213 408.103 268.099 407.235C265.986 406.366 264.066 405.087 262.45 403.471C260.834 401.855 259.555 399.935 258.686 397.822C257.818 395.708 257.377 393.443 257.39 391.158V281.948C257.39 279.671 257.84 277.417 258.714 275.314C259.588 273.212 260.869 271.303 262.484 269.697C264.098 268.092 266.014 266.821 268.122 265.959C270.229 265.096 272.486 264.658 274.763 264.671H331.182C333.455 264.663 335.708 265.105 337.811 265.97C339.914 266.834 341.825 268.106 343.436 269.711C345.046 271.316 346.324 273.223 347.196 275.323C348.068 277.423 348.516 279.674 348.516 281.948Z" fill="#D9EAFF"/>
<path d="M417.068 408.608L430.448 564.927H438.05L424.305 408.608H417.068Z" fill="#EEF4FF"/>
<path d="M352.183 408.608L337.363 564.927H344.773L359.785 408.608H352.183Z" fill="#EEF4FF"/>
<path d="M272.958 408.608L258.119 564.927H265.548L280.56 408.608H272.958Z" fill="#D3E1FF"/>
<path d="M306.61 408.608L291.771 564.927H299.2L316.746 408.608H306.61Z" fill="#D3E1FF"/>
<path d="M94.6592 260.217C94.6592 260.217 85.9055 252.846 77.7469 254.574C72.7942 255.61 71.9879 258.835 68.974 261.504C62.0824 267.608 63.6181 276.592 68.4557 284.425L143.572 345.854C145.113 347.114 146.954 347.952 148.915 348.289C150.877 348.625 152.892 348.448 154.764 347.774L220.782 329.345C219.783 319.746 211.567 311.492 211.567 311.492L154.726 323.72L94.6592 260.217Z" fill="#E8878B"/>
<path d="M152.691 323.087L156.761 327.502" stroke="black" stroke-width="0.4" stroke-miterlimit="10"/>
<path d="M212.162 322.76C210.461 320.527 209.708 317.712 210.068 314.928C210.427 312.143 211.869 309.612 214.082 307.883L226.099 296.365C226.355 296.125 226.659 295.942 226.991 295.828C227.323 295.715 227.676 295.675 228.025 295.709C228.374 295.744 228.712 295.853 229.015 296.029C229.319 296.205 229.581 296.444 229.785 296.73C230.057 297.139 230.202 297.62 230.202 298.112C230.202 298.604 230.057 299.085 229.785 299.494L225.312 306.866L245.334 298.899C245.655 298.679 246.022 298.536 246.407 298.48C246.791 298.423 247.184 298.456 247.554 298.574C247.925 298.693 248.263 298.894 248.544 299.163C248.824 299.433 249.04 299.762 249.173 300.128C249.344 300.721 249.303 301.356 249.058 301.923C248.813 302.49 248.379 302.955 247.83 303.237L234.949 308.996L235.198 310.206L251.592 305.618C251.963 305.529 252.349 305.525 252.723 305.604C253.096 305.683 253.447 305.844 253.75 306.076C254.053 306.307 254.301 306.603 254.476 306.942C254.65 307.282 254.747 307.655 254.76 308.037C254.783 308.623 254.606 309.199 254.256 309.671C253.907 310.142 253.408 310.48 252.84 310.628L236.177 315.638V316.675L249.615 314.314C253.205 313.584 254.069 314.813 254.011 316.118C253.953 317.424 253.339 318.038 249.73 318.902L235.985 321.743V322.53L247.926 321.186C249.845 320.898 250.671 322.281 250.364 323.432C250.133 324.239 248.77 324.699 247.58 324.987L234.066 327.156C234.066 327.156 219.361 332.743 214.735 326.869L212.162 322.76Z" fill="#E8878B"/>
<path d="M225.293 306.808C225.293 306.808 227.788 314.487 221.799 319.766" stroke="#B73D46" stroke-width="0.3" stroke-miterlimit="10"/>
<path d="M135.606 304.658L130.691 299.456L117.158 322.761L122.917 327.502C122.917 327.502 136.7 318.173 135.606 304.658Z" fill="#D6656D"/>
<path d="M131.92 296.115C131.92 296.115 128.983 320.457 112.512 330.669C112.512 330.669 75.1938 312.509 59.9132 280.259C59.9132 280.259 48.0496 267.167 63.3494 253.211C63.3494 253.211 80.3577 241.52 101.244 265.381C122.13 289.243 131.92 296.115 131.92 296.115Z" fill="#79C4BD"/>
<path d="M183.118 317.654L177.359 341.477L154.687 347.812C152.802 348.394 150.806 348.523 148.862 348.19C146.918 347.856 145.079 347.069 143.496 345.892L146.529 315.178L154.649 323.759L183.118 317.654Z" fill="#D6656D"/>
<path d="M213.544 558.016L136.258 554.714L138.869 529.375L141.921 504.054L163.863 505.014C163.423 509.786 164.074 514.595 165.767 519.079C167.46 523.562 170.15 527.601 173.634 530.891C180.833 537.994 192.159 545.02 209.935 549.397C209.878 549.397 215.138 551.086 213.544 558.016Z" fill="#E8878B"/>
<path d="M213.544 558.016L136.258 554.714L138.869 529.374L173.577 530.891C175.042 532.333 176.586 533.692 178.203 534.961C184.588 539.836 191.719 543.648 199.32 546.248C202.781 547.482 206.306 548.533 209.878 549.397C209.878 549.397 215.138 551.086 213.544 558.016Z" fill="#C9E7F4"/>
<path d="M213.736 558.035L213.429 564.869L136.969 561.606L136.508 554.733L213.736 558.035Z" fill="#FFF3F3"/>
<path d="M165.802 530.641C167.528 535.957 170.937 540.567 175.516 543.772C182.81 548.475 183.194 553.198 182.81 556.538L138.082 554.733L139.867 529.413L165.802 530.641Z" fill="#A8D5E5"/>
<path d="M29.1025 357.027C66.632 360.54 131.479 362.287 157.375 374.496C160.831 376.121 163.79 378.64 165.947 381.792C168.103 384.944 169.379 388.615 169.642 392.425L163.883 505.072L139.963 520.775L138.927 402.024L86.2511 404.75C86.2511 404.75 40.4093 400.354 30.8494 385.399L29.1025 357.027Z" fill="#E8878B"/>
<path d="M139.887 514.593V520.717C139.887 520.717 155.455 522.924 165.821 519.239C164.674 517.045 164.018 514.628 163.902 512.155L139.887 514.593Z" fill="#D6656D"/>
<path d="M24.5144 350.999C24.5144 350.999 9.34905 379.602 28.3538 396.706C28.3538 396.706 73.85 413.983 138.005 404.75L137.41 513.806C147.27 517.128 158.04 516.438 167.395 511.886L170.198 389.623C170.077 386.395 169.081 383.261 167.316 380.556C165.551 377.851 163.083 375.676 160.178 374.265C144.859 366.932 89.3417 355.836 24.5144 350.999Z" fill="#6B6BDB"/>
<path d="M138.025 404.75V399.624" stroke="black" stroke-width="0.4" stroke-miterlimit="10"/>
<path d="M86.251 248.162C86.251 248.162 70.049 238.045 58.1855 256.916C58.1855 256.916 47.4161 278.704 32.3275 332.109C32.3275 332.109 29.1217 340.652 23.7466 352.995C24.5038 359.575 26.8313 365.877 30.5329 371.369C34.2345 376.861 39.2019 381.383 45.0165 384.555C45.0165 384.555 57.1872 392.061 66.2673 385.553C75.3473 379.045 101.608 340.594 107.175 322.607C112.743 304.62 107.367 258.951 86.251 248.162Z" fill="#F79110"/>
<path d="M56.6113 268.165C56.6113 268.165 55.1332 277.571 78.0732 326.945C81.2023 333.683 92.9891 350.596 92.9891 350.596C92.9891 350.596 107.617 329.076 109.287 307.634C109.287 307.634 103.528 280.758 93.2578 264.978C82.9876 249.199 56.6113 268.165 56.6113 268.165Z" fill="#F79110"/>
<path d="M116.236 320.553L110.88 324.661" stroke="black" stroke-width="0.3" stroke-miterlimit="10"/>
<path d="M75.5201 263.519C68.5709 259.45 67.4191 255.284 71.4504 243.747L81.4903 212.629C84.6001 208.386 99.7463 211.919 104.277 214.549C108.826 217.217 104.622 221.306 102.357 226.067L94.6784 257.415C93.8898 259.136 92.7505 260.673 91.3333 261.928C89.9162 263.183 88.2525 264.128 86.4489 264.703C84.6453 265.277 82.7415 265.469 80.8595 265.265C78.9775 265.061 77.1589 264.467 75.5201 263.519Z" fill="#E8878B"/>
<path d="M96.4061 250.811C96.4061 250.811 77.7277 240.771 84.485 221.575L101.762 227.334L96.4061 250.811Z" fill="#D6656D"/>
<path d="M98.6713 244.188C95.813 244.005 93.0189 243.26 90.4488 241.996C87.8787 240.732 85.583 238.974 83.693 236.822C81.8031 234.67 80.356 232.166 79.4345 229.455C78.513 226.743 78.1352 223.876 78.3228 221.018L79.609 201.399C79.7921 198.54 80.5369 195.746 81.8009 193.176C83.0649 190.606 84.8232 188.31 86.9752 186.42C89.1273 184.531 91.6308 183.083 94.3427 182.162C97.0545 181.24 99.9214 180.863 102.779 181.05C114.816 181.837 124.664 184.563 123.896 196.6L121.976 223.84C121.793 226.71 121.044 229.516 119.772 232.095C118.499 234.675 116.729 236.977 114.562 238.868C112.396 240.76 109.876 242.204 107.149 243.117C104.421 244.03 101.54 244.394 98.6713 244.188Z" fill="#E8878B"/>
<path d="M122.725 209.423C122.725 209.423 124.241 217.85 125.297 219.463C126.353 221.075 120.92 220.883 120.92 220.883" fill="#E8878B"/>
<path d="M119.481 226.546C116.102 227.18 111.917 224.627 111.917 224.627C111.917 224.627 111.917 229.004 115.584 229.887C119.903 230.885 119.481 226.546 119.481 226.546Z" fill="white"/>
<path d="M115.353 208.751C116.435 208.751 117.311 207.875 117.311 206.793C117.311 205.712 116.435 204.835 115.353 204.835C114.272 204.835 113.395 205.712 113.395 206.793C113.395 207.875 114.272 208.751 115.353 208.751Z" fill="#070707"/>
<path d="M110.88 203.875L110.228 202.973C111.886 201.758 113.91 201.147 115.963 201.241C118.016 201.335 119.976 202.129 121.515 203.491L120.805 204.298C119.469 203.063 117.738 202.343 115.92 202.265C114.103 202.188 112.317 202.759 110.88 203.875Z" fill="#070707"/>
<path d="M78.2844 223.149C83.6751 220.189 87.8589 215.434 90.1096 209.711C93.8338 200.113 89.7065 191.167 96.7901 194.354C123.531 206.198 127.889 191.493 127.889 191.493C128.163 190.37 128.267 189.212 128.196 188.057L128.33 188.192C128.254 187.442 128.1 186.702 127.87 185.984L127.754 185.638C125.835 179.879 117.926 166.826 85.2336 175.119C83.9514 175.432 82.7474 176.006 81.6971 176.805C80.6467 177.604 79.7725 178.612 79.1291 179.764L70.8937 194.872C70.8937 194.872 71.604 211.976 78.2844 223.149Z" fill="#070707"/>
<path d="M86.251 216.391C83.1412 215.432 81.8934 210.632 82.9108 207.311C83.9282 203.99 86.7501 203.606 89.8792 204.547L86.251 216.391Z" fill="#E8878B"/>
<path d="M85.7903 207.446C86.2849 208.142 86.5998 208.95 86.707 209.797C86.8141 210.644 86.7103 211.505 86.4046 212.303C85.9622 211.746 85.3361 211.365 84.6385 211.228" stroke="#B73D46" stroke-width="0.4" stroke-miterlimit="10"/>
<path d="M65.9409 200.535C79.2677 200.535 90.0712 189.732 90.0712 176.405C90.0712 163.078 79.2677 152.275 65.9409 152.275C52.6142 152.275 41.8107 163.078 41.8107 176.405C41.8107 189.732 52.6142 200.535 65.9409 200.535Z" fill="#070707"/>
<path d="M86.8845 216.583C88.0508 216.583 88.9962 215.638 88.9962 214.472C88.9962 213.305 88.0508 212.36 86.8845 212.36C85.7183 212.36 84.7729 213.305 84.7729 214.472C84.7729 215.638 85.7183 216.583 86.8845 216.583Z" fill="white"/>
<path d="M81.3751 222.496L85.3296 217.275C85.6379 216.87 86.0941 216.605 86.5979 216.536C87.1018 216.468 87.6122 216.602 88.0171 216.91L94.544 221.843C94.8639 222.083 95.1009 222.417 95.2221 222.798C95.3432 223.179 95.3425 223.588 95.2199 223.968C95.0973 224.349 94.859 224.681 94.5382 224.92C94.2175 225.158 93.8302 225.291 93.4306 225.299L82.9684 225.587C82.6037 225.601 82.2426 225.51 81.9275 225.326C81.6123 225.142 81.3561 224.872 81.1889 224.548C81.0216 224.224 80.9503 223.858 80.9833 223.495C81.0163 223.132 81.1522 222.785 81.3751 222.496Z" fill="#FFD98D"/>
<path d="M55.3636 400.315L169.45 381.425L134.761 496.087L162.903 490.885L199.78 379.736C202.257 372.365 202.929 365.723 197.726 359.944C178.53 338.655 64.29 371.462 31.0605 353.571C31.0605 353.571 18.4867 362.114 20.8671 384.094C23.2475 406.074 55.3636 400.315 55.3636 400.315Z" fill="#E8878B"/>
<path d="M175.516 558.899C159.486 538.051 163.998 530.929 163.748 529.989C157.298 512.347 162.903 490.943 162.903 490.943L139.522 482.65L130.403 503.766L118.386 528.99L167.146 566.827C168.778 563.182 171.787 560.331 175.516 558.899Z" fill="#E8878B"/>
<path d="M175.516 561.03L159.064 560.454L118.444 528.933L130.403 503.766L163.69 530.046C163.917 532.069 164.27 534.076 164.746 536.055C166.282 542.505 165.725 540.144 170.947 547.976C172.867 550.798 175.439 549.397 178.242 551.815C178.395 551.758 181.486 556.269 175.516 561.03Z" fill="#C9E7F4"/>
<path d="M175.516 561.03L174.575 567L154.303 565.963L113.856 534.577L118.444 528.933L159.064 560.454L175.516 561.03Z" fill="#FFF3F3"/>
<path d="M138.274 485.241L135.491 492.517C135.491 492.517 148.736 501.002 159.698 501.962C159.587 499.494 160.013 497.031 160.945 494.744L138.274 485.241Z" fill="#D6656D"/>
<path d="M24.5144 350.999C24.5144 350.999 11.6143 368.449 20.3296 389.565C20.3296 389.565 35.9173 424.254 163.806 385.399L135.894 485.222C143.829 491.942 154.091 495.266 164.458 494.475L204.58 371.347C205.649 368.304 205.869 365.027 205.216 361.868C204.563 358.709 203.062 355.788 200.875 353.418C189.337 340.978 90.1864 355.011 24.5144 350.999Z" fill="#827DEF"/>
<path d="M163.806 385.399L169.45 381.426" stroke="black" stroke-width="0.4" stroke-miterlimit="10"/>
<path d="M190.566 262.924L152.94 318.268C152.663 318.657 152.29 318.968 151.858 319.171C151.426 319.374 150.949 319.462 150.473 319.427C149.996 319.393 149.537 319.236 149.139 318.972C148.741 318.709 148.417 318.348 148.199 317.923L94.448 260.217C94.448 260.217 85.6943 252.846 77.5357 254.574C72.583 255.61 71.7767 258.835 68.7628 261.504C61.8712 267.608 63.407 276.592 68.2445 284.425L143.112 345.067C144.576 346.256 146.274 347.124 148.096 347.614C149.918 348.103 151.823 348.204 153.686 347.909C155.55 347.614 157.33 346.929 158.911 345.901C160.493 344.872 161.84 343.522 162.865 341.938L208.457 271.716C208.457 271.716 209.513 267.877 200.779 264.575C192.044 261.273 190.566 262.924 190.566 262.924Z" fill="#E8878B"/>
<path d="M215.387 256.512L216.27 257.549C216.949 258.005 217.514 258.611 217.922 259.321C218.329 260.03 218.568 260.824 218.62 261.64C218.672 262.456 218.536 263.274 218.221 264.029C217.907 264.784 217.424 265.457 216.808 265.996L210.415 273.828C209.688 274.462 208.802 274.888 207.853 275.06C206.903 275.232 205.925 275.145 205.021 274.807L187.015 268.146L193.33 258.95C193.33 258.95 192.946 255.303 197.688 248.392L215.387 256.512Z" fill="#E8878B"/>
<path d="M197.592 253.518C198.007 250.979 198.071 248.396 197.784 245.839C197.741 245.644 197.66 245.46 197.544 245.297C197.428 245.134 197.28 244.997 197.11 244.893C196.94 244.789 196.75 244.72 196.552 244.692C196.355 244.663 196.153 244.675 195.96 244.726L195.423 244.86C194.789 245.014 194.239 245.406 193.887 245.954C192.159 248.661 190.451 251.368 187.61 255.169C186.851 256.169 186.32 257.323 186.055 258.55C185.789 259.777 185.796 261.047 186.074 262.272L186.573 264.364C188.205 271.044 201.719 275.21 208.4 273.598" fill="#E8878B"/>
<path d="M196.882 244.707L199.742 245.916C200.067 246.056 200.36 246.261 200.602 246.519C200.845 246.776 201.033 247.081 201.153 247.414C201.274 247.746 201.325 248.1 201.303 248.454C201.282 248.807 201.188 249.152 201.028 249.468C200.734 250.042 200.237 250.486 199.634 250.713C199.03 250.94 198.364 250.934 197.765 250.696L194.77 249.525L196.882 244.707Z" fill="#E8878B"/>
<path d="M208.899 237.527C209.269 237.782 209.584 238.108 209.828 238.486C210.072 238.864 210.238 239.286 210.318 239.728C210.399 240.17 210.391 240.624 210.296 241.063C210.2 241.503 210.019 241.919 209.763 242.288L202.084 253.979C201.859 254.311 201.57 254.596 201.233 254.815C200.897 255.034 200.52 255.184 200.124 255.256C199.729 255.327 199.324 255.319 198.932 255.232C198.539 255.144 198.169 254.979 197.841 254.746L197.266 254.343C196.625 253.887 196.186 253.199 196.043 252.425C195.9 251.652 196.063 250.853 196.498 250.197L204.042 238.448C204.295 238.063 204.623 237.732 205.007 237.476C205.39 237.219 205.822 237.043 206.275 236.957C206.728 236.871 207.194 236.877 207.645 236.975C208.096 237.073 208.522 237.261 208.899 237.527Z" fill="#E8878B"/>
<path d="M208.035 268.299C208.035 268.299 213.487 265.785 215.138 257.184C215.277 256.423 215.111 255.637 214.677 254.996C214.264 254.386 213.702 253.89 213.045 253.556C212.661 253.375 212.242 253.278 211.816 253.273C211.391 253.267 210.97 253.353 210.581 253.524C210.191 253.695 209.843 253.947 209.56 254.264C209.276 254.581 209.064 254.955 208.937 255.361C208.112 257.971 206.326 262.579 203.562 264.21C203.353 264.748 203.318 265.337 203.463 265.896C203.608 266.454 203.924 266.952 204.368 267.32C204.873 267.738 205.462 268.041 206.095 268.21C206.727 268.379 207.389 268.41 208.035 268.299Z" fill="#E8878B"/>
<path d="M209.859 267.052C212.689 264.459 214.552 260.978 215.138 257.184C215.277 256.423 215.111 255.637 214.677 254.996C214.264 254.386 213.702 253.89 213.045 253.556V253.556C212.661 253.375 212.242 253.278 211.816 253.273C211.391 253.267 210.97 253.353 210.581 253.524C210.191 253.695 209.843 253.947 209.56 254.264C209.276 254.581 209.064 254.955 208.937 255.361C208.13 258.294 206.689 261.013 204.714 263.327" stroke="#A50F21" stroke-width="0.3" stroke-miterlimit="10" stroke-linecap="round"/>
<path d="M202.794 265.362C202.794 265.362 208.246 262.867 209.878 254.247C209.954 253.872 209.954 253.484 209.878 253.109C209.802 252.733 209.652 252.376 209.436 252.059C209.023 251.449 208.461 250.953 207.805 250.619C207.419 250.438 206.998 250.341 206.572 250.335C206.145 250.33 205.723 250.415 205.332 250.586C204.941 250.757 204.591 251.009 204.306 251.326C204.021 251.643 203.806 252.017 203.677 252.424C202.871 255.034 201.086 259.661 198.321 261.273C198.113 261.809 198.077 262.397 198.218 262.954C198.359 263.511 198.67 264.011 199.108 264.383C199.617 264.8 200.21 265.103 200.845 265.272C201.481 265.441 202.146 265.472 202.794 265.362Z" fill="#E8878B"/>
<path d="M204.983 263.807C207.631 261.237 209.353 257.862 209.878 254.209C209.954 253.833 209.954 253.446 209.878 253.07C209.802 252.694 209.652 252.338 209.436 252.021C209.023 251.41 208.461 250.915 207.805 250.581C207.419 250.399 206.998 250.303 206.572 250.297C206.145 250.291 205.723 250.377 205.332 250.548C204.941 250.718 204.591 250.971 204.306 251.288C204.021 251.605 203.806 251.979 203.677 252.385C202.996 254.733 201.967 256.965 200.625 259.008" stroke="#A50F21" stroke-width="0.3" stroke-miterlimit="10" stroke-linecap="round"/>
<path d="M199.723 245.916L195.595 252.481L195.999 250.542" stroke="#A50F21" stroke-width="0.3" stroke-linecap="round" stroke-linejoin="round"/>
<path d="M141.211 310.417L136.278 305.215L122.84 328.519L128.599 333.261C128.599 333.261 142.286 323.931 141.211 310.417Z" fill="#D6656D"/>
<path d="M137.525 301.874C137.525 301.874 134.588 326.216 118.098 336.428C118.098 336.428 75.021 312.509 59.7404 280.259C59.7404 280.259 47.8769 267.167 63.1958 253.211C63.1958 253.211 80.1849 241.52 101.071 265.381C112.257 278.473 124.445 290.674 137.525 301.874Z" fill="#F79110"/>
<path d="M20.5599 356.278C20.5599 356.278 53.6551 357.027 92.5284 356.278" stroke="black" stroke-width="0.4" stroke-miterlimit="10"/>
<path d="M24.5145 350.999C24.5145 350.999 56.5922 351.728 92.9891 350.595L95.1775 360.194" stroke="black" stroke-width="0.4" stroke-miterlimit="10"/>
<path d="M85.272 362.44C85.272 362.44 67.2655 381.637 64.1556 385.476" stroke="black" stroke-width="0.4" stroke-miterlimit="10"/>
<path d="M102.837 326.58C102.837 326.58 77.8813 309.515 68.8012 294.906" stroke="black" stroke-width="0.4" stroke-miterlimit="10"/>
<path d="M310.852 163.601C307.48 170.937 301.449 176.72 293.979 179.783C281.904 184.352 289.659 196.216 289.659 196.216C289.659 196.216 283.497 205.565 291.253 209.442C299.008 213.32 302.886 212.859 304.69 212.399C304.69 212.399 308.779 225.625 328.168 218.158C347.557 210.69 331.815 198.961 331.815 198.961C331.815 198.961 339.916 187.021 328.129 174.927C328.129 174.927 324.924 170.799 325.903 161.662" fill="#070707"/>
<path d="M330.529 297.785L344.485 301.452L342.681 327.655L399.157 327.156C400.392 328.203 401.353 329.535 401.959 331.037C402.564 332.539 402.795 334.165 402.632 335.776C402.094 341.381 398.793 341.938 398.793 341.938L334.964 343.704C334.201 343.725 333.443 343.591 332.735 343.309C332.027 343.027 331.383 342.603 330.844 342.064C330.305 341.525 329.882 340.882 329.6 340.174C329.318 339.465 329.183 338.707 329.204 337.945L330.529 297.785Z" fill="#E8878B"/>
<path d="M344.485 301.452C343.133 299.307 341.23 297.564 338.976 296.403C334.119 292.199 323.849 293.793 323.849 293.793L321.929 338.079L332.545 343.359C338.534 332.858 340.55 314.084 341.164 306.251H344.101L344.485 301.452Z" fill="#D6656D"/>
<path d="M342.834 329.844C342.749 328.205 342.787 326.562 342.949 324.93" stroke="black" stroke-width="0.3" stroke-miterlimit="10"/>
<path d="M408.276 325.947C408.276 325.947 424.401 323.855 427.991 339.826C428.049 340.091 428.05 340.366 427.995 340.631C427.939 340.897 427.828 341.148 427.668 341.367C427.509 341.587 427.304 341.77 427.069 341.905C426.833 342.04 426.572 342.123 426.301 342.149C425.791 342.113 425.296 341.961 424.854 341.705C424.411 341.449 424.033 341.095 423.748 340.671C423.748 340.671 421.598 339.692 407.661 339.692C404.599 339.178 401.578 338.447 398.62 337.503L408.276 325.947Z" fill="#E8878B"/>
<path d="M407.066 326.485C407.066 326.485 422.232 321.973 423.748 339.654C423.748 340.364 423.614 341.957 422.059 341.976C421.549 341.94 421.054 341.789 420.611 341.532C420.169 341.276 419.791 340.923 419.506 340.498C414.312 338.784 408.763 338.447 403.4 339.519C400.271 340.057 406.606 334.778 406.606 334.778L407.066 326.485Z" fill="#E8878B"/>
<path d="M399.157 327.156C402.195 326.522 405.274 326.105 408.372 325.909C410.483 325.755 410.157 328.04 409.063 330.765C412.003 331.39 414.74 332.739 417.027 334.69C419.313 336.641 421.076 339.133 422.155 341.938C414.351 342.485 406.519 342.485 398.716 341.938L399.157 327.156Z" fill="#E8878B"/>
<path d="M423.748 340.594C423.891 338.901 423.443 337.211 422.481 335.812C421.518 334.412 420.101 333.388 418.469 332.915" stroke="#B73D46" stroke-width="0.3" stroke-miterlimit="10"/>
<path d="M419.871 338.982C417.888 338.097 415.671 337.881 413.555 338.367" stroke="#B73D46" stroke-width="0.3" stroke-miterlimit="10"/>
<path d="M274.11 318.057C273.784 312.106 277.009 304.255 274.11 297.785C267.858 284.267 260.806 271.132 252.994 258.451C251.631 248.661 268.121 228.773 277.546 225.817L300.141 221.133C304.091 219.904 308.322 219.904 312.273 221.133L325.557 227.737C334.983 230.712 346.865 241.923 345.502 251.713C345.502 251.713 336.403 315.85 318.627 335.257L274.11 318.057Z" fill="#E8878B"/>
<path d="M332.602 230.328C332.602 230.328 349.534 237.604 350.263 274.481C350.263 274.481 350.513 295.04 348.344 303.41C348.344 303.41 344.811 305.867 332.602 303.41V230.328Z" fill="#F79110"/>
<path d="M269.925 343.723C269.925 343.723 274.11 322.165 274.11 318.057C274.11 297.786 247.465 250.869 263.725 230.808C269.408 227.693 275.627 225.674 282.057 224.857C282.057 224.857 298.394 262.041 320.086 254.535C320.086 254.535 331.854 249.467 326.843 228.178L332.602 230.328C332.602 230.328 350.263 274.481 332.103 342.725C332.103 342.725 312.964 357.468 269.925 343.723Z" fill="#F79110"/>
<path d="M337.248 304.12C337.248 304.12 349.707 282.121 341.433 251.905" stroke="black" stroke-width="0.3" stroke-miterlimit="10"/>
<path d="M307.32 351.882H313.655" stroke="black" stroke-miterlimit="10"/>
<path d="M305.881 238.18C304.218 238.18 302.573 237.832 301.054 237.157C299.534 236.482 298.173 235.496 297.058 234.262C295.944 233.028 295.1 231.574 294.583 229.993C294.066 228.413 293.886 226.742 294.055 225.088L296.954 196.619C297.186 194.411 298.226 192.366 299.873 190.878C301.521 189.39 303.66 188.563 305.881 188.556C308.103 188.555 310.247 189.379 311.897 190.868C313.546 192.358 314.583 194.408 314.807 196.619L317.706 225.088C317.875 226.742 317.695 228.413 317.178 229.993C316.661 231.574 315.817 233.028 314.703 234.262C313.588 235.496 312.227 236.482 310.707 237.157C309.188 237.832 307.543 238.18 305.881 238.18Z" fill="#E8878B"/>
<path d="M324.549 193.44C327.799 192.466 329.643 189.041 328.668 185.791C327.693 182.542 324.269 180.698 321.019 181.673C317.769 182.648 315.925 186.072 316.9 189.322C317.875 192.571 321.3 194.415 324.549 193.44Z" stroke="white" stroke-width="0.5" stroke-miterlimit="10"/>
<path d="M317.111 219.213C317.111 219.213 299.834 219.213 296.436 201.744L314.807 196.619L317.111 219.213Z" fill="#D6656D"/>
<path d="M305.9 148.934H305.881C295.353 148.934 286.818 157.469 286.818 167.997V185.178C286.818 195.705 295.353 204.24 305.881 204.24H305.9C316.428 204.24 324.962 195.705 324.962 185.178V167.997C324.962 157.469 316.428 148.934 305.9 148.934Z" fill="#E8878B"/>
<path d="M295.783 167.075C295.783 167.075 297.588 163.831 311.716 163.37C311.716 163.37 321.756 171.586 327.688 161.086C333.62 150.585 316.803 127.607 306.015 145.364C306.015 145.364 296.148 141.524 284.361 148.55C278.812 152.019 274.686 157.357 272.728 163.601C269.349 170.932 263.32 176.714 255.854 179.783C243.76 184.352 251.515 196.216 251.515 196.216C251.515 196.216 245.353 205.564 253.109 209.442C260.864 213.32 264.742 212.859 266.546 212.399C266.546 212.399 270.655 225.625 290.043 218.158C309.432 210.69 293.691 198.961 293.691 198.961C293.691 198.961 303.615 190.975 291.982 184.602C292.001 184.583 292.731 171.298 295.783 167.075Z" fill="#070707"/>
<path d="M291.886 184.275C289.314 184.275 287.221 180.878 287.221 178.152C287.221 175.426 289.314 174.427 291.886 174.427V184.275Z" fill="#E8878B"/>
<path d="M289.295 177.614C289.832 178.025 290.258 178.563 290.536 179.179C290.814 179.796 290.935 180.472 290.888 181.146C290.421 180.829 289.857 180.686 289.295 180.743" stroke="#B73D46" stroke-width="0.3" stroke-miterlimit="10"/>
<path d="M309.317 176.942C309.317 176.942 310.161 184.621 311.236 186.061C312.311 187.5 308.453 187.04 308.453 187.04" stroke="#B73D46" stroke-width="0.3" stroke-miterlimit="10"/>
<path d="M306.207 193.49C307.566 194.132 309.051 194.466 310.555 194.466C312.059 194.466 313.544 194.132 314.903 193.49" stroke="#B73D46" stroke-width="0.3" stroke-miterlimit="10"/>
<path d="M320.72 177.921C321.663 177.921 322.428 177.156 322.428 176.213C322.428 175.269 321.663 174.504 320.72 174.504C319.776 174.504 319.011 175.269 319.011 176.213C319.011 177.156 319.776 177.921 320.72 177.921Z" fill="#070707"/>
<path d="M316.612 173.928L315.997 173.18C317.377 172.03 319.107 171.382 320.903 171.344C322.7 171.306 324.455 171.878 325.884 172.969L325.269 173.717C324.024 172.747 322.481 172.238 320.903 172.276C319.324 172.315 317.808 172.899 316.612 173.928Z" fill="#070707"/>
<path d="M300.832 178.343C301.775 178.343 302.54 177.578 302.54 176.635C302.54 175.691 301.775 174.926 300.832 174.926C299.888 174.926 299.123 175.691 299.123 176.635C299.123 177.578 299.888 178.343 300.832 178.343Z" fill="#070707"/>
<path d="M296.762 174.351L296.148 173.602C297.526 172.453 299.254 171.808 301.048 171.773C302.841 171.738 304.593 172.315 306.015 173.41L305.42 174.159C304.177 173.186 302.635 172.673 301.057 172.708C299.478 172.743 297.961 173.324 296.762 174.351Z" fill="#070707"/>
<path d="M289.544 187.596C289.544 187.596 294.881 193.893 289.678 196.216" stroke="white" stroke-width="0.5" stroke-miterlimit="10"/>
<path d="M256.219 204.298C256.219 204.298 257.831 210.287 267.737 207.964" stroke="white" stroke-width="0.5" stroke-miterlimit="10"/>
<path d="M325.922 205.277C325.922 205.277 333.293 209.961 322.774 215.547" stroke="white" stroke-width="0.5" stroke-miterlimit="10"/>
<path d="M306.386 169.245C310.59 167.984 312.976 163.553 311.714 159.349C310.453 155.145 306.023 152.76 301.818 154.021C297.614 155.282 295.229 159.713 296.49 163.917C297.751 168.121 302.182 170.507 306.386 169.245Z" fill="#070707"/>
<path d="M529.004 558.707H465.808L464.426 535.901L463.255 513.076H481.607C483.757 521.744 488.27 529.645 494.642 535.901C500.938 541.987 510.671 547.88 525.683 551.105C525.606 551.105 530.06 552.41 529.004 558.707Z" fill="#E8878B"/>
<path d="M529.004 558.707H465.808L464.426 535.901H494.565C495.834 537.13 497.174 538.283 498.577 539.357C504.038 543.46 510.151 546.614 516.66 548.686C519.594 549.66 522.581 550.468 525.606 551.105C525.606 551.105 530.06 552.411 529.004 558.707Z" fill="#1C3D4F"/>
<path d="M529.177 558.707V564.869H466.096L465.808 558.707H529.177Z" fill="#FFF3F3"/>
<path d="M516.66 548.686C515.47 549.454 513.071 550.203 508.291 549.934C499.23 549.397 496.485 539.568 496.485 539.568L498.577 539.357C504.038 543.46 510.151 546.614 516.66 548.686Z" fill="white"/>
<path d="M488.172 528.146L486.022 524.595H463.773L464.023 528.146H488.172Z" fill="#DD7A81"/>
<path d="M490.342 524.595H459.896L417.029 389.296C417.012 388.792 416.896 388.296 416.686 387.837C416.477 387.378 416.18 386.964 415.811 386.62C415.441 386.276 415.008 386.008 414.536 385.831C414.063 385.655 413.56 385.573 413.056 385.591C413.056 385.591 405.588 387.377 394.627 389.757C368.577 395.382 322.716 404.385 310.161 400.795C308.52 400.354 306.94 399.709 305.458 398.875C290.869 390.467 292.424 366.721 292.769 360.482L329.243 342.495C330.567 346.872 351.127 341.247 355.408 341.228H358.441L391.479 340.921L427.952 340.575C434.402 340.575 443.482 355.376 443.406 361.826L450.988 384.19L490.342 524.595Z" fill="#76B9DD"/>
<path d="M395.971 388.739L394.627 389.757C368.577 395.382 322.716 404.385 310.161 400.795C308.52 400.354 306.94 399.709 305.458 398.875L358.383 341.285L391.421 340.978C391.421 340.978 413.708 350.519 395.971 388.739Z" fill="#5D9CDB"/>
<path d="M356.176 379.391L425.015 377.913" stroke="#5DABCE" stroke-width="0.3" stroke-miterlimit="10"/>
<path d="M350.225 345.624C350.225 345.624 358.844 377.74 336.096 378.258" stroke="#5DABCE" stroke-width="0.3" stroke-miterlimit="10"/>
<path d="M425.015 377.913L466.826 517.78" stroke="#5DABCE" stroke-width="0.3" stroke-miterlimit="10"/>
<path d="M375.756 558.074C362.012 540.221 365.966 534.097 365.659 533.291C360.15 518.183 364.949 499.831 364.949 499.831L344.907 492.709L337.133 510.773L326.843 532.388L368.634 564.831C370.032 561.733 372.589 559.306 375.756 558.074Z" fill="#E8878B"/>
<path d="M375.756 559.897L361.647 559.398L326.843 532.388L337.133 510.773L365.659 533.291C365.866 535.022 366.174 536.74 366.58 538.435C367.905 543.964 367.425 541.948 371.879 548.667C373.491 551.086 375.718 549.877 378.156 552.027C378.156 552.027 380.882 555.827 375.756 559.897Z" fill="#1C3D4F"/>
<path d="M375.756 559.917L374.95 565.023L357.577 564.14L322.889 537.226L326.843 532.389L361.647 559.398L375.756 559.917Z" fill="#FFF3F3"/>
<path d="M363.317 509.89L363.01 516.455L340.012 504.054L341.548 500.503L363.317 509.89Z" fill="#DD7A81"/>
<path d="M268.62 376.108L270.29 336.755C271.614 341.112 292.174 341.247 296.455 341.228H297.242L380.594 340.537C382.859 340.537 385.432 342.322 387.831 344.971C390.792 348.313 392.942 352.293 394.114 356.601C395.286 360.909 395.449 365.43 394.588 369.811L391.959 384.19L368.654 512.155L339.129 499.428L358.326 393.596C358.306 393.092 358.187 392.596 357.976 392.138C357.764 391.68 357.465 391.268 357.094 390.925C356.723 390.583 356.288 390.317 355.814 390.143C355.341 389.969 354.837 389.89 354.333 389.91C354.333 389.91 303.673 404.903 285.091 402.235C276.663 401.045 268.332 391.312 268.62 376.108Z" fill="#76B9DD"/>
<path d="M297.146 379.391L365.985 377.913" stroke="#5DABCE" stroke-width="0.3" stroke-miterlimit="10"/>
<path d="M291.195 345.624C291.195 345.624 299.814 377.74 277.086 378.258" stroke="#5DABCE" stroke-width="0.3" stroke-miterlimit="10"/>
<path d="M365.985 377.913L348.574 493.592" stroke="#5DABCE" stroke-width="0.3" stroke-miterlimit="10"/>
<path d="M219.726 336.505L230.841 291.047L255.278 292.967L243.376 327.156C243.278 327.436 243.245 327.735 243.282 328.029C243.318 328.324 243.422 328.606 243.586 328.853C243.75 329.1 243.968 329.306 244.225 329.455C244.482 329.604 244.769 329.691 245.065 329.71L288.834 332.915C288.834 332.915 296.935 340.44 290.542 348.753L226.867 346.18C225.712 346.139 224.58 345.838 223.558 345.299C222.535 344.76 221.647 343.997 220.961 343.066C220.274 342.136 219.807 341.063 219.593 339.927C219.379 338.791 219.424 337.621 219.726 336.505Z" fill="#E8878B"/>
<path d="M249.865 308.497C249.865 308.497 236.58 310.264 227.097 306.347L229.554 296.288L251.938 302.527L249.865 308.497Z" fill="#D6656D"/>
<path d="M273.169 226.278C273.169 226.278 235.563 236.74 224.813 298.188C224.813 298.188 243.51 310.033 256.795 302.469C256.795 302.469 266.393 278.953 273.419 269.125" fill="#F79110"/>
<path d="M265.279 283.676L273.419 269.125" stroke="black" stroke-width="0.3" stroke-miterlimit="10"/>
<path d="M226.387 292.986C236.089 298.38 247.259 300.539 258.273 299.148" stroke="white" stroke-miterlimit="10"/>
<path d="M294.62 305.753L313.698 307.88L308.641 353.248C308.566 353.926 308.224 354.547 307.691 354.973C307.158 355.399 306.478 355.596 305.8 355.52L291.739 353.953C291.061 353.877 290.441 353.535 290.015 353.003C289.589 352.47 289.392 351.789 289.467 351.111L294.524 305.742L294.62 305.753Z" fill="#F0FCFC"/>
<path d="M301.926 327.156C299.776 326.6 297.088 324.853 294.247 326.043L291.656 350.423C291.642 350.507 291.646 350.592 291.667 350.674C291.688 350.756 291.726 350.833 291.779 350.9C291.831 350.967 291.897 351.022 291.971 351.062C292.046 351.102 292.128 351.126 292.212 351.133L306.284 352.707C306.454 352.723 306.624 352.672 306.756 352.564C306.889 352.457 306.975 352.301 306.994 352.131L309.662 328.155C306.572 329.594 304.076 327.732 301.926 327.156Z" fill="#F75C3E"/>
<g opacity="0.5">
<path d="M301.914 311.356L295.259 329.954L299.85 331.597L306.505 312.999L301.914 311.356Z" fill="white"/>
<path d="M308.537 313.708L301.882 332.307L305.045 333.439L311.7 314.84L308.537 313.708Z" fill="white"/>
</g>
<path d="M291.809 330.996L291.637 331.303C298.477 328.739 305.796 327.704 313.079 328.27C313.079 328.27 315.844 328.116 316.228 330.189C316.228 330.189 316.765 332.109 314.308 332.992C314.308 332.992 316.381 334.432 316.093 335.948C315.805 337.465 313.828 338.002 313.828 338.002C314.222 338.24 314.557 338.565 314.807 338.951C315.057 339.338 315.215 339.776 315.271 340.233C315.326 340.69 315.277 341.153 315.127 341.588C314.977 342.023 314.729 342.419 314.404 342.744C314.404 342.744 315.191 346.295 309.95 348.234C305.082 350.342 299.887 351.595 294.593 351.939C294.593 351.939 282.557 347.543 287.183 333.53C287.183 333.53 288.085 326.004 292.692 323.49" fill="#E8878B"/>
<path d="M314.289 333.011L307.416 333.53" stroke="#B73D46" stroke-width="0.3" stroke-miterlimit="10"/>
<path d="M313.809 338.022L307.858 337.964" stroke="#B73D46" stroke-width="0.3" stroke-miterlimit="10"/>
<path d="M314.385 342.763L307.666 343.282" stroke="#B73D46" stroke-width="0.3" stroke-miterlimit="10"/>
<path d="M726.557 341.727H66.5168V355.74H726.557V341.727Z" fill="#D9EAFF"/>
<path d="M660.386 355.74H649.405V565.023H660.386V355.74Z" fill="#D3E1FF"/>
<path d="M649.405 372.461L660.386 355.74H649.405V372.461Z" fill="#CDDDFC"/>
<path d="M159.659 355.74H148.679V565.023H159.659V355.74Z" fill="#D3E1FF"/>
<path d="M148.698 372.461L159.678 355.74H148.698V372.461Z" fill="#CDDDFC"/>
<path d="M627.176 355.74H616.195V565.023H627.176V355.74Z" fill="#EEF4FF"/>
<path d="M616.195 372.461L627.176 355.74H616.195V372.461Z" fill="#CDDDFC"/>
<path d="M856.039 530.449C856.039 530.449 824.748 464.47 852.2 450.015C879.651 435.56 871.396 483.993 871.396 483.993C871.396 483.993 861.356 520.141 861.069 530.449C860.781 540.758 856.039 530.449 856.039 530.449Z" fill="#6CE08D"/>
<path d="M859.206 535.114C850.779 486.547 859.206 454.814 859.206 454.488L860.3 454.776C860.3 455.083 851.931 486.585 860.3 534.903L859.206 535.114Z" fill="#50D171"/>
<path d="M855.348 529.931C855.348 529.931 849.934 513.614 836.554 508.546C823.174 503.478 807.759 491.403 815.783 481.671C823.808 471.938 845.673 484.205 852.641 511.176C857.383 529.528 855.348 529.931 855.348 529.931Z" fill="#6CE08D"/>
<path d="M854.81 530.123C848.686 511.406 840.297 500.464 834.366 494.571C831.082 491.087 827.175 488.249 822.848 486.201L823.251 485.145C827.731 487.2 831.767 490.108 835.134 493.707C841.2 499.677 849.723 510.773 855.943 529.759L854.81 530.123Z" fill="#50D171"/>
<path d="M859.206 531.947C859.206 531.947 864.639 515.63 878.019 510.562C891.399 505.494 906.814 493.4 898.79 483.686C890.766 473.973 868.881 486.22 861.913 513.172C857.191 531.544 859.206 531.947 859.206 531.947Z" fill="#6CE08D"/>
<path d="M859.763 532.12L858.669 531.774C864.888 512.788 873.412 501.674 879.459 495.703C882.837 492.117 886.87 489.211 891.342 487.142L891.764 488.217C891.553 488.293 871.396 496.318 859.763 532.12Z" fill="#50D171"/>
<path d="M856.135 537.341C856.135 537.341 862.585 527.973 872.01 527.224C881.436 526.476 893.453 521.657 890.151 514.017C886.85 506.377 870.705 510.178 861.356 525.957C854.925 536.707 856.135 537.341 856.135 537.341Z" fill="#6CE08D"/>
<path d="M856.442 537.552L855.808 537.13C870.091 516.244 884.604 514.843 884.796 514.823V515.591C881.668 516.085 878.66 517.159 875.927 518.759C871.127 521.408 863.717 526.802 856.442 537.552Z" fill="#50D171"/>
<path d="M859.149 537.341C859.149 537.341 852.699 527.973 843.273 527.224C833.847 526.476 821.83 521.657 825.132 514.017C828.434 506.377 844.598 510.178 853.927 525.957C860.358 536.707 859.149 537.341 859.149 537.341Z" fill="#6CE08D"/>
<path d="M858.842 537.552C844.77 516.954 830.584 515.591 830.43 515.591V514.823C830.584 514.823 845.135 516.244 859.417 537.13L858.842 537.552Z" fill="#50D171"/>
<path d="M881.167 531.697L872.51 564.332C872.455 564.54 872.333 564.724 872.163 564.856C871.993 564.988 871.784 565.06 871.569 565.061H846.613C846.396 565.061 846.184 564.989 846.011 564.858C845.838 564.726 845.712 564.541 845.653 564.332L845.385 563.314L836.842 531.697C836.728 531.26 836.715 530.802 836.805 530.359C836.895 529.916 837.086 529.5 837.362 529.142C837.638 528.784 837.993 528.494 838.399 528.295C838.804 528.096 839.25 527.992 839.703 527.992H878.307C878.619 527.987 878.931 528.033 879.229 528.127C879.947 528.361 880.548 528.862 880.909 529.526C881.269 530.19 881.362 530.967 881.167 531.697Z" fill="#E8B974"/>
<path d="M881.167 531.697L872.509 564.331C872.455 564.54 872.333 564.724 872.163 564.856C871.993 564.987 871.784 565.06 871.569 565.061H846.613C846.395 565.061 846.184 564.989 846.011 564.857C845.837 564.726 845.712 564.541 845.653 564.331L845.385 563.314C853.063 563.103 868.075 562.412 869.764 560.473C872.068 557.843 871.684 550.971 874.352 538.454C874.986 534.622 876.705 531.051 879.305 528.165C880.001 528.414 880.578 528.915 880.923 529.569C881.267 530.223 881.354 530.982 881.167 531.697Z" fill="#E8B26B"/>
<path d="M264.089 48.862H166.916C162.675 48.862 159.237 52.2999 159.237 56.5407V120.37C159.237 124.611 162.675 128.048 166.916 128.048H264.089C268.33 128.048 271.768 124.611 271.768 120.37V56.5407C271.768 52.2999 268.33 48.862 264.089 48.862Z" fill="#EBEBEB"/>
<path d="M187.322 106.817H173.404V117.97H187.322V106.817Z" fill="#F79110"/>
<path d="M209.955 85.9114H196.037V117.97H209.955V85.9114Z" fill="#F79110"/>
<path d="M232.588 76.2172H218.67V117.97H232.588V76.2172Z" fill="#F79110"/>
<path d="M255.22 64.968H241.303V117.989H255.22V64.968Z" fill="#F79110"/>
<path d="M258.58 117.97H170.045V120.37H258.58V117.97Z" fill="#DAD9DB"/>
<path d="M681.598 0.8125H568.088C565.406 0.8125 563.232 2.98695 563.232 5.66927V94.3004C563.232 96.9828 565.406 99.1572 568.088 99.1572H681.598C684.281 99.1572 686.455 96.9828 686.455 94.3004V5.66927C686.455 2.98695 684.281 0.8125 681.598 0.8125Z" fill="#E1E5F0" fill-opacity="0.25"/>
<path d="M593.447 63.0098H578.551C577.321 63.0098 576.324 64.0067 576.324 65.2366V80.1332C576.324 81.3631 577.321 82.36 578.551 82.36H593.447C594.677 82.36 595.674 81.3631 595.674 80.1332V65.2366C595.674 64.0067 594.677 63.0098 593.447 63.0098Z" fill="#F79110"/>
<path d="M632.915 63.0098H618.019C616.789 63.0098 615.792 64.0067 615.792 65.2366V80.1332C615.792 81.3631 616.789 82.36 618.019 82.36H632.915C634.145 82.36 635.142 81.3631 635.142 80.1332V65.2366C635.142 64.0067 634.145 63.0098 632.915 63.0098Z" fill="#F79110"/>
<path d="M632.915 14.1734H618.019C616.789 14.1734 615.792 15.1704 615.792 16.4002V31.2968C615.792 32.5267 616.789 33.5237 618.019 33.5237H632.915C634.145 33.5237 635.142 32.5267 635.142 31.2968V16.4002C635.142 15.1704 634.145 14.1734 632.915 14.1734Z" fill="#F79110"/>
<path d="M672.384 63.0098H657.487C656.257 63.0098 655.26 64.0067 655.26 65.2366V80.1332C655.26 81.3631 656.257 82.36 657.487 82.36H672.384C673.614 82.36 674.611 81.3631 674.611 80.1332V65.2366C674.611 64.0067 673.614 63.0098 672.384 63.0098Z" fill="#F79110"/>
<path d="M666.759 63.0099H663.112V49.1883H587.822V63.0099H584.175V45.5409H666.759V63.0099Z" fill="#E1E5F0"/>
<path d="M627.291 33.5237H623.643V63.0098H627.291V33.5237Z" fill="#E1E5F0"/>
</svg>
