<svg width="996" height="1528" viewBox="0 0 996 1528" fill="none" xmlns="http://www.w3.org/2000/svg">
<path fill-rule="evenodd" clip-rule="evenodd" d="M838.605 716.624C894.484 722.494 935.988 768.818 975.976 808.288C1009.55 841.426 1029.78 882.883 1050.15 925.43C1070.91 968.785 1092.61 1011.11 1096.04 1059.05C1100.08 1115.6 1117.24 1190.36 1071.51 1223.85C1022.34 1259.86 953.927 1203.69 893.115 1207.68C850.763 1210.47 816.04 1243.3 773.597 1243.44C721.123 1243.61 666.634 1238.23 623.362 1208.55C574.112 1174.77 532.932 1125.96 518.019 1068.13C502.408 1007.6 509.497 940.228 540.11 885.722C569.771 832.912 628.644 807.193 681.344 777.338C731.246 749.069 781.566 710.632 838.605 716.624Z" fill="#F79110"/>
<path fill-rule="evenodd" clip-rule="evenodd" d="M448.254 1326.7C417.965 1367 381.012 1398.89 341.338 1430C293.988 1467.12 252.938 1527.88 192.775 1527.01C132.826 1526.14 84.7152 1473.01 47.8609 1425.72C16.3495 1385.29 8.3235 1332.61 1.66754 1281.78C-3.45193 1242.69 13.2252 1205.58 13.8709 1166.15C14.5379 1125.43 -10.5765 1083.75 5.52395 1046.34C21.9013 1008.29 61.7859 985.723 99.1896 967.912C135.755 950.5 178.037 958.338 216.563 945.849C280.34 925.177 339.345 840.777 399.388 870.604C456.303 898.877 412.06 995.393 435.336 1054.53C455.135 1104.82 521.378 1133.04 523.94 1187.03C526.494 1240.84 480.619 1283.64 448.254 1326.7Z" fill="#F79110"/>
<path fill-rule="evenodd" clip-rule="evenodd" d="M1086.71 466.433C1110.43 494.108 1134.46 519.03 1158.68 546.274C1196.39 588.7 1278.21 615.813 1269.33 671.879C1260.47 727.833 1171.8 724.176 1125.36 756.617C1093.64 778.771 1071.28 809.577 1039.87 832.163C999.101 861.483 963.327 913.774 913.324 909.09C864.074 904.477 849.573 833.745 806.039 810.259C747.674 778.772 634.088 815.468 619.763 750.717C604.206 680.404 722.463 651.854 757.015 588.671C776.599 552.858 759.722 507.844 773.572 469.448C791.733 419.101 801.311 353.813 849.858 331.277C897.672 309.08 956.163 337.304 1001.95 363.431C1041.24 385.85 1057.27 432.089 1086.71 466.433Z" fill="#F79110"/>
<path fill-rule="evenodd" clip-rule="evenodd" d="M1043.01 24.419C1101.06 11.387 1163.18 -29.9657 1216.27 -3.11932C1268.79 23.434 1274.5 96.4051 1294.68 151.68C1311.97 199.017 1323.55 246.641 1325.85 296.982C1328.23 349.21 1325.28 400.703 1308.32 450.157C1288.8 507.071 1278.27 587.704 1220.44 604.294C1157.26 622.417 1108.67 529.308 1043.01 526.258C982.301 523.439 932.281 608.128 874.852 588.242C820.946 569.576 803.605 496.66 794.773 440.302C787.035 390.92 830.175 346.958 829.21 296.982C828.216 245.475 772.279 199.099 789.179 150.433C805.548 103.297 864.817 87.9382 909.509 65.7507C951.958 44.6772 996.77 34.8003 1043.01 24.419Z" fill="#F79110"/>
<path d="M667.487 930.79L660.292 811.254L656.817 749.906C656.817 749.906 658.659 714.333 605.204 696.929C603.919 696.443 602.598 695.991 601.277 695.574L543.339 678.761C534.844 676.283 525.792 676.477 517.412 679.317L460.273 698.631L459.787 698.84V698.666C402.683 717.981 406.263 755.325 406.263 755.325L395.836 930.79H667.487Z" fill="#FFAB2F"/>
<path d="M529.888 715.48C526.339 715.549 522.814 714.875 519.541 713.5C516.268 712.126 513.319 710.083 510.884 707.501C508.448 704.92 506.58 701.857 505.4 698.511C504.219 695.165 503.753 691.608 504.03 688.071L508.93 627.209C509.308 622.484 511.425 618.068 514.873 614.814C518.321 611.561 522.854 609.701 527.594 609.596C532.334 609.499 536.943 611.16 540.531 614.258C544.118 617.356 546.431 621.673 547.023 626.375L554.53 687.098C554.947 690.612 554.625 694.173 553.585 697.555C552.545 700.937 550.809 704.064 548.489 706.736C546.169 709.408 543.316 711.567 540.113 713.072C536.909 714.578 533.427 715.398 529.888 715.48Z" fill="#E8878B"/>
<path d="M552.862 673.55C552.862 673.55 518.107 679.317 508.062 652.082L549.248 644.404L552.862 673.55Z" fill="#D6656D"/>
<path d="M525.785 538.973L525.75 538.974C503.278 539.46 485.455 558.063 485.941 580.524L486.736 617.199C487.222 639.661 505.833 657.475 528.306 656.989L528.34 656.988C550.812 656.502 568.635 637.899 568.149 615.438L567.355 578.763C566.868 556.301 548.257 538.487 525.785 538.973Z" fill="#E8878B"/>
<path d="M525.753 538.277C475.044 539.389 486.201 592.921 486.201 592.921L486.513 606.435H487.938L491.24 586.738C491.537 584.031 492.339 581.403 493.604 578.991L498.921 568.986C500.8 565.456 503.989 562.802 507.803 561.594C511.617 560.386 515.752 560.721 519.323 562.525C521.474 563.628 523.856 564.204 526.274 564.204C528.692 564.204 531.074 563.628 533.225 562.525L534.407 561.9C537.957 560.035 542.098 559.642 545.936 560.805C549.773 561.969 552.998 564.596 554.913 568.118L559.639 576.733C560.815 578.899 561.614 581.248 562.003 583.681L566.382 604.698H567.807L567.529 591.185C567.529 591.185 577.886 537.166 525.753 538.277Z" fill="#070707"/>
<path d="M551.958 530.982C558.052 530.248 564.23 531.197 569.822 533.727C574.174 535.421 577.83 538.526 580.206 542.545C582.582 546.563 583.539 551.263 582.925 555.89C580.736 578.922 550.394 575.17 502.987 574.823C502.987 574.823 485.922 575.517 498.573 551.131C514.225 539.727 532.671 532.765 551.958 530.982Z" fill="#070707"/>
<path d="M568.12 613.487C573.611 613.487 577.886 606.018 577.747 600.217C577.608 594.415 573.125 592.366 567.668 592.47L568.12 613.487Z" fill="#E8878B"/>
<path d="M486.686 615.224C481.195 615.224 476.607 608.276 476.468 602.405C476.329 596.534 480.743 594.346 486.234 594.242L486.686 615.224Z" fill="#E8878B"/>
<path d="M548.275 606.782C550.252 606.782 551.855 605.18 551.855 603.204C551.855 601.228 550.252 599.626 548.275 599.626C546.298 599.626 544.695 601.228 544.695 603.204C544.695 605.18 546.298 606.782 548.275 606.782Z" fill="#070707"/>
<path d="M539.654 598.41L538.438 596.777C541.341 594.332 544.995 592.956 548.791 592.88C552.586 592.805 556.293 594.033 559.291 596.361L558.005 597.924C555.374 595.843 552.096 594.752 548.742 594.841C545.388 594.93 542.172 596.193 539.654 598.41Z" fill="#070707"/>
<path d="M506.568 607.685C508.545 607.685 510.148 606.083 510.148 604.107C510.148 602.131 508.545 600.529 506.568 600.529C504.591 600.529 502.988 602.131 502.988 604.107C502.988 606.083 504.591 607.685 506.568 607.685Z" fill="#070707"/>
<path d="M497.948 599.313L496.662 597.75C499.564 595.305 503.219 593.929 507.015 593.853C510.81 593.777 514.517 595.006 517.515 597.333L516.264 598.896C513.641 596.822 510.375 595.728 507.031 595.804C503.686 595.88 500.474 597.122 497.948 599.313Z" fill="#070707"/>
<path d="M502.119 554.57C502.119 554.57 516.403 569.751 491.483 585.001L487.521 583.577C487.521 583.577 492.074 544.669 502.119 554.57Z" fill="#070707"/>
<path d="M786.141 1004.23L778.947 884.727L775.471 823.378C775.471 823.378 777.313 787.84 723.859 770.471C722.576 769.947 721.265 769.495 719.932 769.116L662.029 752.268C653.531 749.808 644.485 750.002 636.101 752.824L578.963 772.173H578.441C521.338 791.314 524.918 828.797 524.918 828.797L514.491 1004.23H786.141Z" fill="#55AAFF"/>
<path d="M647.919 788.709C644.367 788.789 640.837 788.122 637.559 786.752C634.281 785.381 631.327 783.338 628.89 780.754C626.452 778.17 624.585 775.103 623.408 771.752C622.232 768.401 621.773 764.84 622.061 761.3L626.927 700.473C627.312 695.745 629.437 691.329 632.891 688.076C636.344 684.823 640.881 682.965 645.625 682.86C650.364 682.756 654.972 684.415 658.556 687.516C662.139 690.616 664.443 694.937 665.019 699.639L672.561 760.223C672.994 763.745 672.684 767.318 671.651 770.712C670.618 774.106 668.885 777.247 666.563 779.93C664.241 782.614 661.383 784.782 658.172 786.294C654.96 787.806 651.468 788.629 647.919 788.709Z" fill="#E8878B"/>
<path d="M670.892 746.814C670.892 746.814 636.136 752.546 626.057 725.311L667.277 717.668L670.892 746.814Z" fill="#D6656D"/>
<path d="M643.774 612.239L643.739 612.239C621.267 612.726 603.444 631.328 603.931 653.789L604.725 690.465C605.211 712.926 623.823 730.74 646.295 730.254L646.33 730.253C668.802 729.767 686.625 711.164 686.138 688.703L685.344 652.028C684.858 629.567 666.246 611.752 643.774 612.239Z" fill="#E8878B"/>
<path d="M643.921 611.507C593.074 612.618 604.23 666.255 604.23 666.255L604.508 679.768H605.933L609.409 660.071C609.713 657.372 610.527 654.755 611.807 652.359L617.125 642.355C619.003 638.824 622.194 636.172 626.01 634.97C629.826 633.767 633.962 634.112 637.526 635.928C639.68 637.023 642.061 637.594 644.477 637.594C646.893 637.594 649.275 637.023 651.429 635.928L652.61 635.303C656.162 633.447 660.3 633.059 664.135 634.222C667.97 635.385 671.195 638.006 673.116 641.521L677.808 650.171C679.003 652.331 679.814 654.682 680.206 657.119L684.585 677.962H686.01L685.628 664.379C685.628 664.379 695.742 610.395 643.921 611.507Z" fill="#070707"/>
<path d="M686.115 686.716C691.606 686.716 695.916 679.247 695.777 673.446C695.638 667.644 691.154 665.595 685.663 665.699L686.115 686.716Z" fill="#E8878B"/>
<path d="M604.717 688.488C599.225 688.488 594.603 681.54 594.499 675.634C594.394 669.729 598.774 667.61 604.265 667.471L604.717 688.488Z" fill="#E8878B"/>
<path d="M666.269 680.011C668.247 680.011 669.849 678.41 669.849 676.433C669.849 674.457 668.247 672.855 666.269 672.855C664.292 672.855 662.69 674.457 662.69 676.433C662.69 678.41 664.292 680.011 666.269 680.011Z" fill="#070707"/>
<path d="M657.824 671.639L656.538 670.111C659.42 667.698 663.039 666.339 666.798 666.257C670.557 666.174 674.232 667.375 677.217 669.659L675.966 671.223C673.357 669.193 670.126 668.126 666.821 668.202C663.515 668.278 660.337 669.492 657.824 671.639Z" fill="#070707"/>
<path d="M624.598 680.915C626.575 680.915 628.178 679.313 628.178 677.337C628.178 675.36 626.575 673.758 624.598 673.758C622.621 673.758 621.018 675.36 621.018 677.337C621.018 679.313 622.621 680.915 624.598 680.915Z" fill="#070707"/>
<path d="M616.117 672.543L614.831 671.014C617.714 668.601 621.332 667.242 625.091 667.16C628.851 667.078 632.525 668.278 635.511 670.563L634.259 672.126C631.65 670.096 628.419 669.029 625.114 669.105C621.808 669.181 618.63 670.395 616.117 672.543Z" fill="#070707"/>
<path d="M689.904 602.44C689.904 602.44 713.121 647.6 685.386 652.012C685.386 652.012 655.287 636.345 624.702 643.571C624.702 643.571 614.032 644.508 611.634 652.22L611.252 634.851L643.783 612.271C643.783 612.271 649.692 598.827 646.946 596.222L689.904 602.44Z" fill="#070707"/>
<path d="M633.495 1015.97L717.361 1015.31C717.361 1015.31 735.677 998.427 721.705 982.621L633.738 983.697L633.495 1015.97Z" fill="#E8878B"/>
<path d="M685.212 1015.55C685.212 1015.55 695.326 996.308 683.996 983.42L679.095 983.663L675.62 1015.62L685.212 1015.55Z" fill="#DD7A81"/>
<path d="M755.905 1018.3L762.23 1016.84C763.736 1016.49 765.14 1015.8 766.335 1014.82C767.53 1013.84 768.484 1012.59 769.122 1011.19C769.76 1009.78 770.066 1008.25 770.016 1006.7C769.966 1005.16 769.562 1003.65 768.834 1002.28L760.979 987.692C760.121 986.106 758.852 984.779 757.305 983.851C755.758 982.922 753.99 982.425 752.186 982.412H723.478C720.817 982.421 718.267 983.482 716.385 985.363C714.504 987.244 713.443 989.792 713.433 992.452V1010.45C713.428 1011.66 713.667 1012.87 714.136 1013.99C714.604 1015.11 715.293 1016.13 716.161 1016.98C717.03 1017.83 718.06 1018.5 719.191 1018.95C720.322 1019.39 721.532 1019.61 722.748 1019.58L756.044 1018.3" fill="#E8878B"/>
<path d="M756.287 1005.3L764.246 1016.35C764.954 1017.34 765.896 1018.14 766.987 1018.68C768.078 1019.22 769.286 1019.48 770.502 1019.44H771.302C771.925 1019.42 772.532 1019.24 773.068 1018.92C773.605 1018.61 774.054 1018.16 774.375 1017.62C774.695 1017.09 774.878 1016.48 774.906 1015.86C774.934 1015.24 774.806 1014.62 774.534 1014.06L769.633 1004.23L756.287 1005.3Z" fill="#E8878B"/>
<path d="M750.518 991.236C750.518 991.236 758.929 999.747 755.905 1016.87C755.65 1018.4 754.8 1019.76 753.542 1020.66C752.333 1021.5 750.936 1022.02 749.475 1022.19C748.631 1022.26 747.78 1022.16 746.981 1021.88C746.182 1021.59 745.454 1021.14 744.846 1020.55C744.239 1019.96 743.766 1019.24 743.461 1018.45C743.156 1017.66 743.026 1016.82 743.08 1015.97C743.358 1010.52 743.289 1000.68 739.326 995.752C739.302 994.608 739.643 993.487 740.299 992.55C740.955 991.613 741.893 990.91 742.976 990.541C744.209 990.107 745.521 989.944 746.823 990.064C748.125 990.184 749.385 990.584 750.518 991.236Z" fill="#E8878B"/>
<path d="M738.7 993.007C738.7 993.007 747.111 1001.52 744.122 1018.64C743.841 1020.17 742.982 1021.53 741.724 1022.43C740.556 1023.29 739.196 1023.85 737.762 1024.06C736.918 1024.14 736.067 1024.03 735.268 1023.75C734.469 1023.47 733.741 1023.02 733.133 1022.43C732.526 1021.83 732.053 1021.12 731.748 1020.33C731.443 1019.54 731.313 1018.69 731.367 1017.85C731.68 1012.39 731.575 1002.56 727.613 997.628C727.577 996.505 727.892 995.4 728.515 994.465C729.138 993.531 730.038 992.815 731.089 992.417C732.324 991.957 733.645 991.771 734.96 991.873C736.274 991.975 737.551 992.362 738.7 993.007Z" fill="#E8878B"/>
<path d="M533.19 872.047L537.639 965.842L673.186 969.003C674.371 969.011 675.532 969.338 676.547 969.949C677.563 970.561 678.394 971.434 678.956 972.477C687.749 989.534 678.434 1007.22 673.847 1014.16C673.22 1015.12 672.357 1015.91 671.342 1016.44C670.326 1016.98 669.19 1017.25 668.042 1017.22L536.527 1013.64L504.274 1013.82C502.28 1013.83 500.305 1013.43 498.467 1012.67C496.628 1011.9 494.963 1010.76 493.571 1009.34C492.18 1007.91 491.09 1006.22 490.367 1004.36C489.644 1002.51 489.303 1000.52 489.363 998.531L492.63 888.096L483.316 819.453C532.078 831.854 533.19 872.047 533.19 872.047Z" fill="#6CE08D"/>
<path d="M504.586 866.072L500.311 1024.06H335.847L331.503 866.072C329 844.534 339.879 824.003 357.257 817.438L406.818 798.818C414.039 796.073 422.016 796.073 429.236 798.818L478.867 817.438C496.21 824.003 507.123 844.534 504.586 866.072Z" fill="#6CE08D"/>
<path d="M373.384 1016.56L457.25 1015.87C457.25 1015.87 475.566 998.983 461.594 983.211L373.627 984.253L373.384 1016.56Z" fill="#E8878B"/>
<path d="M424.962 1016.14C424.962 1016.14 435.076 996.898 423.745 983.975L418.845 984.219L415.369 1016.21L424.962 1016.14Z" fill="#DD7A81"/>
<path d="M495.723 1018.89L502.049 1017.39C503.554 1017.04 504.959 1016.35 506.154 1015.37C507.349 1014.39 508.302 1013.15 508.94 1011.74C509.579 1010.34 509.885 1008.8 509.835 1007.26C509.785 1005.71 509.38 1004.2 508.653 1002.84L500.798 988.283C499.945 986.692 498.677 985.361 497.129 984.431C495.581 983.502 493.81 983.008 492.005 983.003H463.192C460.546 983.021 458.012 984.075 456.134 985.938C454.256 987.802 453.184 990.328 453.148 992.973V1011C453.138 1012.22 453.373 1013.42 453.841 1014.55C454.308 1015.67 454.997 1016.68 455.867 1017.53C456.737 1018.38 457.769 1019.05 458.902 1019.49C460.036 1019.93 461.246 1020.14 462.462 1020.1L495.758 1018.85" fill="#E8878B"/>
<path d="M496.107 1005.86L504.066 1017.12C504.774 1018.11 505.715 1018.91 506.806 1019.45C507.898 1019.98 509.105 1020.25 510.322 1020.21H511.121C511.743 1020.19 512.35 1020.02 512.888 1019.7C513.425 1019.39 513.875 1018.95 514.197 1018.41C514.518 1017.88 514.701 1017.28 514.729 1016.66C514.756 1016.03 514.627 1015.42 514.353 1014.86L509.453 1005.03L496.107 1005.86Z" fill="#E8878B"/>
<path d="M490.337 991.826C490.337 991.826 498.748 1000.3 495.724 1017.46C495.603 1018.22 495.331 1018.94 494.925 1019.58C494.519 1020.22 493.987 1020.78 493.361 1021.22C492.156 1022.07 490.759 1022.6 489.294 1022.78C488.45 1022.85 487.6 1022.74 486.802 1022.45C486.004 1022.17 485.277 1021.72 484.668 1021.13C484.059 1020.54 483.583 1019.83 483.272 1019.04C482.961 1018.25 482.822 1017.41 482.865 1016.56C483.177 1011.11 483.108 1001.28 479.146 996.308C479.109 995.185 479.424 994.08 480.048 993.145C480.671 992.211 481.571 991.495 482.621 991.097C483.882 990.646 485.227 990.478 486.56 990.604C487.894 990.73 489.183 991.147 490.337 991.826Z" fill="#E8878B"/>
<path d="M478.519 993.598C478.519 993.598 486.929 1002.11 483.906 1019.24C483.784 1019.99 483.513 1020.71 483.107 1021.35C482.701 1022 482.168 1022.55 481.542 1022.99C480.337 1023.84 478.94 1024.37 477.476 1024.55C476.632 1024.63 475.781 1024.52 474.982 1024.24C474.183 1023.95 473.455 1023.5 472.847 1022.91C472.239 1022.32 471.767 1021.61 471.462 1020.82C471.157 1020.02 471.027 1019.18 471.081 1018.33C471.394 1012.88 471.289 1003.05 467.327 998.079C467.291 996.957 467.606 995.851 468.229 994.917C468.852 993.983 469.752 993.266 470.803 992.869C472.064 992.418 473.409 992.249 474.742 992.375C476.075 992.501 477.364 992.919 478.519 993.598Z" fill="#E8878B"/>
<path d="M353.225 918.423L337.445 835.05L244.578 976.993C241.847 981.164 240.289 985.993 240.067 990.973C239.845 995.954 240.968 1000.9 243.317 1005.3C245.666 1009.7 249.155 1013.38 253.419 1015.97C257.683 1018.55 262.564 1019.95 267.552 1020L407.756 1021.42C408.901 1021.46 410.036 1021.2 411.052 1020.67C412.068 1020.14 412.932 1019.36 413.56 1018.4C418.148 1011.45 427.463 993.806 418.669 976.715C418.102 975.677 417.269 974.808 416.255 974.197C415.242 973.587 414.084 973.257 412.9 973.241L312.456 970.914L353.225 918.423Z" fill="#6CE08D"/>
<path d="M432.294 693.177C425.478 707.945 413.322 719.587 398.269 725.762C373.94 734.968 389.545 758.834 389.545 758.834C389.545 758.834 377.137 777.662 392.777 785.478C408.417 793.294 416.203 792.426 419.887 791.453C419.887 791.453 428.159 818.098 467.224 802.952C506.289 787.806 474.557 764.357 474.557 764.357C474.557 764.357 490.788 740.492 467.085 716.001C467.085 716.001 460.655 707.698 462.567 689.252" fill="#070707"/>
<path d="M422.215 835.641C418.865 835.638 415.553 834.934 412.492 833.574C409.431 832.214 406.689 830.228 404.443 827.744C402.197 825.26 400.496 822.333 399.45 819.152C398.405 815.971 398.038 812.606 398.373 809.274L404.108 751.955C404.566 747.484 406.675 743.345 410.023 740.345C413.372 737.345 417.719 735.7 422.215 735.732C426.693 735.736 431.011 737.401 434.33 740.404C437.65 743.408 439.736 747.537 440.184 751.99L446.058 809.309C446.388 812.638 446.017 815.999 444.969 819.176C443.921 822.353 442.22 825.275 439.974 827.755C437.728 830.235 434.988 832.218 431.93 833.577C428.871 834.935 425.562 835.638 422.215 835.641Z" fill="#E8878B"/>
<path d="M444.842 797.428C444.842 797.428 410.086 797.428 403.135 762.273L440.115 751.851L444.842 797.428Z" fill="#D6656D"/>
<path d="M426.143 663.65H418.323C399.263 663.65 383.811 679.094 383.811 698.145V740.561C383.811 759.612 399.263 775.057 418.323 775.057H426.143C445.204 775.057 460.656 759.612 460.656 740.561V698.145C460.656 679.094 445.204 663.65 426.143 663.65Z" fill="#E8878B"/>
<path d="M401.848 700.16C401.848 700.16 405.324 693.629 433.962 692.691C433.962 692.691 454.19 709.227 466.146 688.106C478.102 666.984 444.215 620.643 422.493 656.424C422.493 656.424 402.613 648.886 378.84 662.851C367.695 669.871 359.406 680.618 355.449 693.177C348.653 707.947 336.506 719.592 321.458 725.762C297.129 734.968 312.734 758.834 312.734 758.834C312.734 758.834 300.327 777.662 315.932 785.478C331.537 793.294 339.392 792.426 343.076 791.453C343.076 791.453 351.313 818.098 390.379 802.952C429.444 787.806 397.747 764.357 397.747 764.357C397.747 764.357 417.766 748.273 394.271 735.42C394.237 735.42 395.731 708.671 401.848 700.16Z" fill="#070707"/>
<path d="M393.994 734.829C388.816 734.829 384.61 727.881 384.61 722.497C384.61 717.112 388.816 714.889 393.994 714.889V734.829Z" fill="#E8878B"/>
<path d="M452.14 722.011C454.041 722.011 455.581 720.471 455.581 718.571C455.581 716.672 454.041 715.132 452.14 715.132C450.24 715.132 448.699 716.672 448.699 718.571C448.699 720.471 450.24 722.011 452.14 722.011Z" fill="#070707"/>
<path d="M443.938 713.951L442.687 712.457C445.461 710.143 448.941 708.84 452.554 708.765C456.167 708.689 459.698 709.844 462.567 712.041L461.351 713.569C458.855 711.604 455.752 710.567 452.576 710.637C449.399 710.706 446.345 711.878 443.938 713.951Z" fill="#070707"/>
<path d="M412.032 722.879C413.932 722.879 415.473 721.339 415.473 719.44C415.473 717.541 413.932 716.001 412.032 716.001C410.132 716.001 408.591 717.541 408.591 719.44C408.591 721.339 410.132 722.879 412.032 722.879Z" fill="#070707"/>
<path d="M403.83 714.889L402.579 713.395C405.358 711.078 408.844 709.774 412.463 709.698C416.082 709.623 419.619 710.779 422.494 712.979L421.277 714.507C418.762 712.57 415.66 711.551 412.486 711.621C409.312 711.69 406.257 712.844 403.83 714.889Z" fill="#070707"/>
<path d="M423.192 704.551C431.65 702.015 436.449 693.106 433.911 684.653C431.374 676.2 422.461 671.403 414.004 673.939C405.547 676.475 400.747 685.384 403.285 693.837C405.822 702.29 414.735 707.087 423.192 704.551Z" fill="#070707"/>
<path d="M616.117 1024.03H451.549C450.627 1024.03 449.743 1023.66 449.091 1023.01C448.44 1022.36 448.074 1021.48 448.074 1020.56V1014.96C448.074 1014.04 448.44 1013.16 449.091 1012.51C449.743 1011.85 450.627 1011.49 451.549 1011.49H616.117V1024.03Z" fill="#7988BF"/>
<path d="M833.618 874.687H648.544C647.359 874.693 646.207 875.082 645.261 875.795C644.315 876.509 643.626 877.51 643.296 878.648L601.589 1024.13H796.221L838.762 881.705C839.004 880.897 839.055 880.045 838.911 879.214C838.768 878.383 838.434 877.597 837.936 876.917C837.437 876.237 836.788 875.682 836.039 875.295C835.29 874.908 834.461 874.7 833.618 874.687Z" fill="#A0BAEA"/>
<path d="M840.744 874.687H655.67C654.483 874.687 653.329 875.074 652.382 875.789C651.435 876.503 650.747 877.507 650.422 878.648L608.715 1024.13H799.245C800.422 1024.13 801.567 1023.75 802.512 1023.05C803.456 1022.35 804.151 1021.37 804.494 1020.24L845.992 881.635C846.223 880.824 846.263 879.97 846.108 879.14C845.953 878.311 845.607 877.528 845.099 876.855C844.59 876.182 843.932 875.635 843.176 875.259C842.421 874.883 841.588 874.687 840.744 874.687Z" fill="#B8CAFC"/>
<path d="M733.731 971.817C745.037 971.817 754.202 962.656 754.202 951.356C754.202 940.055 745.037 930.895 733.731 930.895C722.425 930.895 713.26 940.055 713.26 951.356C713.26 962.656 722.425 971.817 733.731 971.817Z" fill="white"/>
</svg>
